<?xml version="1.0" encoding="UTF-8" standalone="no"?>
<svg
   xmlns:dc="http://purl.org/dc/elements/1.1/"
   xmlns:cc="http://creativecommons.org/ns#"
   xmlns:rdf="http://www.w3.org/1999/02/22-rdf-syntax-ns#"
   xmlns:svg="http://www.w3.org/2000/svg"
   xmlns="http://www.w3.org/2000/svg"
   xmlns:sodipodi="http://sodipodi.sourceforge.net/DTD/sodipodi-0.dtd"
   xmlns:inkscape="http://www.inkscape.org/namespaces/inkscape"
   viewBox="0 0 93.778377 39.36286"
   height="39.362862"
   width="93.778381"
   xml:space="preserve"
   id="svg2"
   version="1.1"
   sodipodi:docname="dc-right.svg"
   inkscape:version="0.92.2 (5c3e80d, 2017-08-06)"><sodipodi:namedview
     pagecolor="#ffffff"
     bordercolor="#666666"
     borderopacity="1"
     objecttolerance="10"
     gridtolerance="10"
     guidetolerance="10"
     inkscape:pageopacity="0"
     inkscape:pageshadow="2"
     inkscape:window-width="1366"
     inkscape:window-height="705"
     id="namedview4139"
     showgrid="false"
     fit-margin-top="0"
     fit-margin-left="0"
     fit-margin-right="0"
     fit-margin-bottom="0"
     inkscape:zoom="1.4212845"
     inkscape:cx="-86.139316"
     inkscape:cy="65.366904"
     inkscape:window-x="-8"
     inkscape:window-y="-8"
     inkscape:window-maximized="1"
     inkscape:current-layer="g12" /><metadata
     id="metadata8"><rdf:RDF><cc:Work
         rdf:about=""><dc:format>image/svg+xml</dc:format><dc:type
           rdf:resource="http://purl.org/dc/dcmitype/StillImage" /><dc:title></dc:title></cc:Work></rdf:RDF></metadata><defs
     id="defs6"><clipPath
       id="clipPath3094"
       clipPathUnits="userSpaceOnUse"><path
         id="path3092"
         d="m 2665.87,6302.21 h -319.58 c -9.02,49.12 -25.28,93.13 -46.82,128.74 -17.02,28.1 -37.35,51 -60.17,66.94 -12.31,8.62 -25.38,15.19 -38.99,19.41 v 19.85 c 0.66,0.83 1.42,1.57 2.22,2.13 1.07,0.78 2.26,1.48 3.46,1.95 1.15,0.54 2.45,0.71 3.71,0.87 0.4,0.03 0.8,0.04 1.2,0.04 2.11,0 4.21,-0.36 6.22,-0.93 l -0.47,-0.75 0.64,-0.46 h 0.02 c 2.44,0 4.76,-1.23 6.77,-2.64 1.51,-1.08 3.09,-2.23 3.92,-3.93 0.86,-1.64 0.86,-3.42 -0.01,-5 -0.85,-1.6 -2.56,-2.63 -4.36,-3 -0.36,-0.07 -0.71,-0.1 -1.06,-0.1 -1.34,0 -2.54,0.5 -3.41,1.3 l -0.15,0.19 -0.4,0.49 -0.87,1.8 -0.27,2.35 -0.4,1.56 -1.51,-0.86 c -0.53,-0.73 -1.11,-1.9 -1.17,-3.22 -0.1,-1.28 0.17,-2.67 0.64,-3.58 l 0.61,-1.08 0.26,-0.4 c 0.92,-1.18 2.23,-2.16 3.75,-2.71 1.02,-0.37 2.12,-0.56 3.22,-0.56 0.54,0 1.08,0.05 1.61,0.14 1.58,0.3 3.13,0.88 4.49,1.87 1.36,0.96 2.51,2.28 3.25,3.81 0.74,1.52 1.08,3.25 0.95,4.91 -0.12,1.66 -0.68,3.22 -1.49,4.5 -1.62,2.55 -3.81,4.02 -5.74,5.11 l -2.28,1.06 c 0.36,0.01 0.73,0.02 1.1,0.02 1.55,0 3.07,-0.14 4.54,-0.43 2.06,-0.44 4,-1.19 5.74,-2.21 l 1.28,-0.81 1.22,-0.9 1.16,-0.98 1.12,-1.09 c 1.16,-1.11 2.41,-2.3 3.4,-3.75 1,-1.42 1.81,-3.01 2.27,-4.67 l 0.26,-1.26 0.09,-1.27 -0.19,-2.27 -0.8,-1.75 -1.15,-0.96 -0.55,-0.19 -0.65,-0.13 -0.89,0.01 -1.99,0.32 -1.44,-0.18 c -0.48,-0.59 0.45,-2.26 2.29,-3.3 l 1.47,-0.6 1.44,-0.2 1.08,0.06 0.4,0.09 c 1.29,0.27 2.55,1.02 3.49,2.02 0.95,0.99 1.56,2.22 1.94,3.48 0.37,1.25 0.53,2.63 0.39,3.84 l -0.18,1.75 2.47,0.83 c 0.69,0.13 1.38,0.19 2.08,0.19 1.72,0 3.43,-0.36 5.04,-0.88 2.29,-0.76 4.44,-1.85 6.4,-3.18 2.02,-1.35 3.89,-2.81 5.55,-4.43 2.34,-2.15 5.18,-7.28 11.28,-8.68 l 2.25,-0.23 2.28,0.25 2.24,0.76 1.89,1.27 0.81,0.72 c 0.31,0.02 0.63,0.03 0.94,0.03 1.26,0 2.49,-0.17 3.67,-0.48 3.24,-0.87 6.21,-2.77 7.73,-5.29 l 0.38,-0.72 0.18,-0.36 0.13,-0.44 0.24,-0.91 0.16,-0.95 c 0.17,-1.26 -0.05,-2.36 -0.59,-3 -0.5,-0.65 -1.5,-1.13 -2.66,-1.29 -0.32,-0.04 -0.64,-0.07 -0.97,-0.07 -0.83,0 -1.65,0.14 -2.31,0.38 l -1.59,0.76 -1.03,0.95 -1.05,0.75 -0.97,-1.01 0.23,-2.51 1.49,-2.06 0.91,-0.67 c 1.39,-0.88 3.07,-1.36 4.85,-1.36 0.33,0 0.66,0.02 0.99,0.05 1.07,0.1 2.18,0.38 3.23,0.93 1.05,0.54 2.06,1.37 2.76,2.43 l 0.93,2.08 c 1.83,-1.06 3.78,-2.11 5.59,-2.98 3.23,-1.56 6.55,-2.9 10.02,-3.81 2.47,-0.65 5.04,-1.04 7.65,-1.04 1.07,0 2.14,0.07 3.21,0.21 l 1.37,0.26 1.4,0.34 c 0.95,0.29 1.81,0.69 2.64,1.13 1.67,0.9 3.19,1.98 4.58,3.25 1.08,0.96 2.14,2.08 3.11,3.43 l 1.33,2.29 c 0.38,0.89 0.64,1.83 0.79,2.8 0.56,3.89 -0.85,7.91 -3.43,10.92 -1.31,1.52 -2.94,2.83 -4.86,3.66 -0.97,0.42 -2,0.73 -3.08,0.86 -0.85,0.11 -1.45,0.12 -2.08,0.12 -0.09,0 -0.18,0 -0.27,0 -0.14,0 -0.29,0 -0.45,0 -1.76,-0.02 -3.73,-0.16 -5.68,-1.08 -0.97,-0.44 -1.91,-1.13 -2.6,-1.99 -0.68,-0.83 -1.14,-1.77 -1.43,-2.68 l -0.14,-0.57 -0.23,-1.54 0.25,-2.31 1.15,-2.31 c 1.04,-1.35 2.31,-2.14 3.28,-2.6 0.65,-0.3 1.19,-0.46 1.56,-0.46 0.21,0 0.36,0.05 0.45,0.15 l -0.7,1.86 c -0.58,0.85 -1.35,1.86 -1.73,2.81 -0.41,0.95 -0.35,1.75 -0.22,2.41 l 0.26,0.82 0.12,0.31 0.77,1.16 1.12,0.72 c 0.84,0.34 2.01,0.48 3.34,0.48 0.14,0 0.29,0 0.44,-0.01 l 2.17,-0.11 1.77,-0.49 c 1.18,-0.49 2.29,-1.31 3.23,-2.34 1.89,-2.03 2.99,-4.84 2.78,-7.29 l -0.35,-1.76 -0.82,-1.7 c -0.66,-1.1 -1.47,-2.14 -2.32,-3.04 -1.09,-1.18 -2.32,-2.26 -3.66,-3.13 l -2.04,-1.13 -1.13,-0.37 -1.16,-0.34 c -1.64,-0.37 -3.34,-0.53 -5.06,-0.53 -1.65,0 -3.33,0.15 -4.99,0.43 -3.38,0.59 -6.75,1.61 -10.07,2.91 -1.85,0.73 -3.88,1.66 -5.8,2.6 l 0.16,1.05 c 0.09,1.13 -0.04,2.19 -0.3,3.11 l -0.44,1.33 -0.54,1.23 -0.29,0.58 -0.39,0.55 -0.79,1 c -1.39,1.53 -3.04,2.62 -4.8,3.38 -1.76,0.76 -3.59,1.2 -5.45,1.37 -0.5,0.04 -1,0.07 -1.5,0.07 -0.84,0 -1.68,-0.07 -2.5,-0.19 l 1.01,1.6 -2.12,1.93 -1.5,1.17 0.1,0.19 0.31,1.07 c 0,0 0.03,0.09 0.05,0.25 l 1.35,0.23 1.35,0.64 0.59,0.74 0.07,0.81 -0.7,1.6 -1.19,1.24 -1.3,0.68 -1.62,-0.19 0.46,-1.47 0.52,-0.93 0.39,-1 c 0.26,-0.97 0.16,-1.91 0.08,-2.35 l -1.53,-0.25 v -0.43 l 1.07,-0.83 -0.46,-0.86 -0.73,-1.01 -0.92,-0.83 -1.04,-0.68 -1.13,-0.38 -1.28,-0.18 -1.31,0.09 c -1.75,0.26 -3.52,1.29 -5.12,2.57 l -2.3,2.04 -2.43,2.07 c -2.09,1.59 -4.31,2.87 -6.57,4 -2.29,1.15 -4.74,2.04 -7.28,2.54 -1.24,0.23 -2.52,0.38 -3.8,0.38 -1.32,0 -2.64,-0.15 -3.92,-0.55 l -2.4,-1.06 -0.35,1.39 c -0.77,2.34 -2.08,4.37 -3.52,5.99 -1.45,1.66 -3.08,2.84 -4.45,3.82 -1.73,1.31 -3.8,2.52 -5.9,3.37 -2.13,0.85 -4.38,1.35 -6.64,1.5 -0.48,0.03 -0.95,0.04 -1.42,0.04 -1.77,0 -3.53,-0.2 -5.27,-0.53 l -0.72,-0.14 c -1.38,0.47 -2.79,0.82 -4.22,1.08 -1.48,0.25 -3,0.39 -4.51,0.39 -1.3,0 -2.61,-0.11 -3.91,-0.34 -1.37,-0.33 -2.76,-0.68 -4.01,-1.41 -1.26,-0.68 -2.36,-1.5 -3.41,-2.45 -0.62,-0.53 -1.21,-1.18 -1.74,-1.89 v 14.09 l 0.92,-0.29 0.83,0.04 0.49,0.08 0.58,0.18 1.26,0.86 0.8,1.11 0.32,0.77 0.09,0.29 0.18,0.75 0.07,0.77 -0.08,1.19 -0.78,2.19 h 0.74 c 0.85,0 1.68,0.12 2.5,0.12 0.32,0 0.64,-0.02 0.96,-0.07 2.26,-0.33 4.39,-0.89 5.97,-2.02 l 0.88,-0.66 0.81,-0.88 1.26,-2.16 0.52,-2.2 -0.21,-1.96 -0.12,-0.38 -0.11,-0.43 -0.17,-0.5 -0.3,-1.17 0.19,-1.17 1.09,-0.42 1.5,0.49 0.7,0.47 0.52,0.52 0.49,0.56 c 0.71,1.08 1.22,2.52 1.25,4.02 0.02,1.52 -0.41,2.99 -1.07,4.25 -0.67,1.27 -1.57,2.33 -2.57,3.13 l -1.52,1.08 -1.53,0.71 c -1.71,0.6 -3.4,0.81 -5.04,0.81 -0.85,0 -1.69,-0.05 -2.51,-0.14 -1.2,-0.13 -2.39,-0.35 -3.58,-0.61 l -0.92,-0.23 -1.69,2.25 -1.2,0.98 -1.3,0.76 c -0.08,0.03 -0.15,0.07 -0.22,0.1 v 322.22 l 1.43,-0.73 1.77,-0.44 0.14,1.83 c -0.3,0.89 -1.02,1.93 -1.94,2.84 -0.44,0.41 -0.92,0.78 -1.4,1.1 v 10.03 c 0.08,-0.09 0.17,-0.19 0.25,-0.29 1.6,-1.82 3.42,-3.58 5.57,-5.01 l 0.81,-0.51 0.85,-0.43 1.75,-0.8 c 1.22,-0.45 2.48,-0.85 3.77,-1.05 1.28,-0.22 2.58,-0.33 3.87,-0.33 1.31,0 2.61,0.11 3.88,0.32 l 1.83,0.43 1.78,0.53 c 1.22,0.41 2.42,0.92 3.49,1.58 1.07,0.66 2.06,1.41 2.89,2.24 l 1.2,1.27 1,1.38 c 1.23,1.9 2.07,3.86 2.63,5.77 0.56,1.91 0.87,3.76 1.02,5.51 0.28,3.5 -0.07,6.58 -0.62,9.07 -0.49,2.21 -1.14,3.97 -1.7,5.2 l 1.03,-0.11 c 1.06,-0.11 2.13,-0.09 3.2,-0.11 1.08,0.03 2.16,0.04 3.23,0.17 1.07,0.07 2.14,0.27 3.2,0.45 l 1.58,0.37 0.77,0.21 0.76,0.24 1.46,0.61 1.43,0.73 1.3,0.82 1.22,0.87 0.46,0.37 1.2,1 1.58,1.52 0.84,0.87 0.81,0.97 c 2.13,2.67 3.75,5.63 3.12,6.24 -0.08,0.05 -0.17,0.08 -0.28,0.08 -0.96,0 -3.14,-1.89 -5.36,-3.67 l -1.85,-1.35 -1.62,-1.13 -1.14,-0.76 -0.44,-0.28 -1.03,-0.61 -1.05,-0.55 -1.1,-0.48 -1.19,-0.41 -0.6,-0.2 -0.64,-0.13 -1.29,-0.25 c -0.89,-0.12 -1.77,-0.26 -2.7,-0.3 -0.9,-0.08 -1.85,-0.08 -2.78,-0.1 -0.96,0.03 -1.9,0.02 -2.86,0.11 -1.89,0.07 -3.86,0.39 -5.8,0.76 -3.88,0.75 -7.67,1.67 -11.26,2.65 -3.54,1.06 -7.03,2.19 -10.27,2.46 -0.78,0.06 -1.58,0.1 -2.38,0.1 -0.48,0 -0.96,-0.01 -1.43,-0.05 33.79,10.16 64.23,28.09 89.25,51.73 -0.76,-1.08 -1.41,-2.25 -1.92,-3.49 -1.44,-2.97 -2.16,-6.57 -3.06,-10.17 -0.9,-3.69 -2.07,-7.29 -3.33,-11.07 -0.63,-1.8 -1.35,-3.69 -2.25,-5.4 l -1.26,-2.52 -1.53,-2.34 -1.62,-2.25 -0.9,-0.99 -0.36,-0.45 -0.45,-0.45 -0.99,-0.81 -0.9,-0.72 -1.08,-0.63 -0.99,-0.63 -0.45,-0.18 -1.26,-0.63 -1.8,-0.81 -2.07,-0.9 c -2.97,-1.26 -6.03,-2.25 -5.94,-3.15 0.11,-0.54 1.36,-0.78 3.06,-0.78 1.16,0 2.52,0.11 3.87,0.33 l 1.26,0.27 1.17,0.27 2.07,0.63 1.53,0.54 0.54,0.18 1.35,0.63 1.35,0.72 1.35,0.81 1.26,1.08 0.63,0.54 0.54,0.54 1.08,1.17 1.98,2.52 c 0.72,0.9 1.26,1.8 1.8,2.7 0.54,0.9 1.08,1.89 1.44,2.88 l 0.45,0.99 c 0.81,-1.17 1.98,-2.61 3.69,-4.14 1.89,-1.71 4.32,-3.51 7.56,-5.04 1.53,-0.72 3.33,-1.44 5.31,-1.89 1.65,-0.39 3.5,-0.65 5.44,-0.65 0.29,0 0.57,0.01 0.86,0.02 l 1.62,0.27 1.71,0.36 c 1.17,0.27 2.25,0.81 3.42,1.35 1.08,0.63 2.16,1.35 3.15,2.25 l 1.35,1.26 1.17,1.44 c 1.62,1.89 3.06,4.23 3.96,6.66 0.45,1.17 0.72,2.43 0.99,3.78 l 0.09,1.89 0.09,0.99 -0.09,0.99 c -0.09,2.52 -0.72,5.04 -1.53,7.29 -0.72,2.25 -1.71,4.41 -2.7,6.48 -1.71,3.42 -3.51,6.57 -5.13,9.72 l 0.36,-0.09 c 2.07,-0.54 4.23,-1.17 6.39,-1.71 1.98,-0.54 4.14,-1.17 6.3,-1.44 l 2.43,-0.27 0.54,-0.36 1.17,-0.72 1.26,-0.63 0.45,-0.27 1.44,-0.54 1.98,-0.63 2.16,-0.45 -0.18,-0.09 -1.08,-0.72 -1.08,-0.72 -0.99,-0.9 c -2.34,-2.25 -3.78,-5.13 -4.41,-7.92 l -0.09,-0.45 -0.18,-1.17 c -0.09,-0.99 -0.09,-2.34 0.18,-3.6 0.36,-1.17 0.9,-2.34 1.53,-3.06 l 1.62,-0.81 0.54,1.8 c 0,0.81 0.09,1.71 0.18,2.7 0.09,0.9 0.27,1.8 0.45,2.43 l 0.27,0.81 0.09,0.27 c 0.63,1.8 1.89,3.69 3.51,5.22 l 0.54,0.54 0.63,0.45 0.72,0.36 0.81,0.45 c 0.99,0.45 2.16,0.9 3.42,1.35 2.43,0.72 5.13,1.35 7.83,2.34 l 1.08,0.36 0.99,0.45 1.98,1.08 c 1.26,0.72 2.25,1.62 3.15,2.52 2.34,2.34 4.23,5.13 5.67,8.01 0.72,1.44 1.26,2.97 1.62,4.5 l 0.27,1.17 0.27,1.08 0.45,2.25 c 0.36,1.53 0.63,3.06 0.81,4.59 0.62,-0.06 1.23,-0.08 1.82,-0.08 2.22,0 4.18,0.35 5.74,0.71 1.98,0.45 3.15,0.99 3.15,0.99 0,0 -0.72,5.31 -3.96,10.17 1.35,0.9 2.43,1.89 3.69,2.97 l 1.62,1.44 0.9,0.81 0.81,0.81 c 1.17,1.17 2.16,2.34 3.15,3.69 1.8,2.61 3.15,5.67 4.05,8.91 0.27,1.17 0.54,2.52 0.63,3.96 v 2.25 l -0.18,1.08 -0.18,1.08 c -0.54,2.88 -1.35,5.58 -1.89,8.1 -0.27,1.26 -0.45,2.43 -0.54,3.6 v 0.81 0.9 l 0.09,0.72 0.18,0.81 c 0.45,2.16 1.44,4.14 2.7,5.58 l 0.18,0.27 0.54,0.63 1.98,1.62 2.25,1.53 1.26,1.35 c -0.09,0.45 -0.63,0.81 -1.53,0.99 -0.3,0.06 -0.64,0.09 -1.01,0.09 -0.73,0 -1.57,-0.12 -2.41,-0.36 -1.17,-0.36 -2.34,-0.99 -3.15,-1.62 l -0.99,-0.72 -0.36,-0.27 c -2.16,-1.89 -3.87,-4.68 -4.59,-7.83 l -0.27,-1.26 0.81,-1.35 0.99,-1.26 v -0.27 l -2.43,1.71 -2.07,1.44 -1.44,0.9 -0.63,0.27 -1.17,0.72 -1.26,0.72 -0.63,0.27 -1.35,1.98 c -1.44,1.71 -3.06,3.33 -4.5,4.77 -1.53,1.62 -3.15,3.15 -4.68,4.68 l -0.27,0.27 c 3.42,0.18 7.2,0.18 10.98,0.36 2.34,0.18 4.68,0.45 7.02,0.9 2.34,0.45 4.77,1.17 7.02,2.34 l 0.9,0.45 0.81,0.54 1.62,1.08 c 0.99,0.81 2.07,1.71 2.79,2.7 1.71,2.07 2.88,4.41 3.78,6.75 l 0.63,1.8 0.45,1.8 c 0.27,1.26 0.45,2.61 0.36,3.87 -0.09,1.26 -0.27,2.43 -0.54,3.6 l -0.54,1.62 -0.72,1.62 c -0.99,1.98 -2.16,3.69 -3.51,5.13 -1.44,1.44 -2.88,2.61 -4.41,3.6 -2.88,1.98 -5.76,3.24 -8.19,4.05 -2.16,0.63 -3.96,0.99 -5.4,1.08 l 0.63,0.9 c 0.63,0.81 1.17,1.8 1.8,2.7 0.54,0.9 1.08,1.89 1.53,2.88 0.45,0.9 0.72,1.98 1.08,2.97 l 0.45,1.53 0.18,0.81 0.18,0.81 0.27,1.53 0.09,1.62 v 1.53 l -0.18,1.44 -0.09,0.63 -0.27,1.53 -0.63,2.16 -0.36,1.17 -0.36,1.17 c -1.12,3.01 -2.73,5.78 -3.58,5.78 -0.04,0 -0.07,-0.01 -0.11,-0.02 -0.9,-0.36 -0.36,-3.51 0.09,-6.66 l 0.27,-2.25 0.27,-1.98 0.09,-1.35 v -0.54 -1.17 l -0.09,-1.17 -0.18,-1.26 -0.27,-1.17 -0.09,-0.63 -0.18,-0.63 -0.45,-1.26 -0.99,-2.52 -1.26,-2.43 -1.62,-2.43 c -1.08,-1.62 -2.34,-3.15 -3.6,-4.59 -1.26,-1.53 -2.43,-2.97 -3.87,-4.41 -1.35,-1.35 -2.7,-2.7 -4.05,-4.05 -2.61,-2.61 -5.22,-5.04 -7.2,-7.74 -0.77,-0.92 -1.39,-1.96 -1.88,-3.06 3.89,16.5 5.94,33.69 5.94,51.36 0,17.67 -2.06,34.86 -5.94,51.36 0.49,-1.09 1.11,-2.12 1.88,-3.09 1.98,-2.61 4.59,-5.13 7.2,-7.74 1.35,-1.26 2.7,-2.61 4.05,-4.05 1.44,-1.35 2.61,-2.88 3.87,-4.32 1.26,-1.53 2.52,-3.06 3.6,-4.68 l 1.62,-2.43 1.26,-2.43 0.99,-2.52 0.45,-1.26 0.18,-0.63 0.09,-0.54 0.27,-1.26 0.18,-1.17 0.09,-1.17 v -1.26 -0.54 l -0.09,-1.35 -0.27,-1.98 -0.27,-2.25 c -0.45,-3.15 -0.99,-6.3 -0.09,-6.66 0.03,-0.01 0.07,-0.02 0.11,-0.02 0.85,0 2.46,2.77 3.58,5.78 l 0.36,1.26 0.36,1.17 0.63,2.07 0.27,1.53 0.09,0.63 0.18,1.44 v 1.62 l -0.09,1.53 -0.27,1.62 -0.18,0.72 -0.18,0.81 -0.45,1.53 c -0.36,0.99 -0.63,2.07 -1.08,3.06 -0.45,0.99 -0.99,1.89 -1.53,2.88 -0.63,0.9 -1.17,1.8 -1.8,2.7 l -0.63,0.81 c 1.44,0.09 3.24,0.45 5.4,1.17 2.43,0.72 5.31,1.98 8.19,3.96 1.53,0.99 2.97,2.16 4.41,3.6 1.35,1.44 2.52,3.15 3.51,5.22 l 0.72,1.53 0.54,1.62 c 0.27,1.17 0.45,2.43 0.54,3.69 0.09,1.26 -0.09,2.52 -0.36,3.78 l -0.45,1.8 -0.63,1.8 c -0.9,2.34 -2.07,4.68 -3.78,6.75 -0.72,0.99 -1.8,1.89 -2.79,2.7 l -1.62,1.17 -0.81,0.45 -0.9,0.45 c -2.25,1.17 -4.68,1.89 -7.02,2.34 -2.34,0.54 -4.68,0.72 -7.02,0.9 -3.78,0.27 -7.56,0.18 -10.98,0.36 l 0.27,0.36 c 1.53,1.53 3.15,2.97 4.68,4.59 1.44,1.44 3.06,3.06 4.41,4.77 l 1.44,1.98 0.54,0.27 1.26,0.72 1.17,0.72 0.45,0.27 1.17,0.99 2.61,1.35 2.43,1.71 v -0.27 l -0.99,-1.26 -0.36,-1.35 v -1.17 c 0.81,-3.15 2.34,-5.94 4.59,-7.92 l 0.27,-0.27 0.9,-0.72 c 0.81,-0.54 1.98,-1.17 3.15,-1.62 0.91,-0.19 1.82,-0.34 2.59,-0.34 0.3,0 0.58,0.02 0.83,0.07 0.9,0.18 1.44,0.63 1.53,1.08 l -1.26,1.35 -2.25,1.44 -1.98,1.71 -0.54,0.54 -0.18,0.27 c -1.26,1.44 -2.25,3.42 -2.7,5.58 l -0.18,0.81 -0.09,0.81 v 0.81 0.81 c 0.09,1.17 0.27,2.43 0.54,3.69 0.54,2.52 1.35,5.13 1.89,8.01 l 0.18,1.08 0.18,1.08 v 2.25 c -0.09,1.44 -0.27,2.79 -0.63,4.05 -0.9,3.15 -2.25,6.21 -4.05,8.82 -0.99,1.35 -1.98,2.61 -3.15,3.69 l -0.81,0.81 -0.9,0.81 -1.62,1.53 c -1.26,0.99 -2.34,1.98 -3.69,2.97 3.24,4.77 3.96,10.08 3.96,10.08 0,0 -1.17,0.54 -3.15,0.99 -1.57,0.36 -3.52,0.71 -5.74,0.71 -0.59,0 -1.2,-0.02 -1.82,-0.08 -0.18,1.53 -0.45,3.06 -0.81,4.59 l -0.45,2.25 -0.27,1.17 -0.27,1.17 c -0.36,1.53 -0.9,3.06 -1.62,4.5 -1.44,2.79 -3.33,5.58 -5.67,7.92 -0.9,0.9 -1.89,1.8 -3.15,2.52 l -1.98,1.08 -0.99,0.45 -1.08,0.36 c -2.7,0.99 -5.4,1.62 -7.83,2.43 -1.26,0.36 -2.43,0.81 -3.42,1.26 l -0.81,0.45 -0.72,0.45 -0.63,0.45 -0.54,0.45 c -1.62,1.53 -2.88,3.42 -3.51,5.22 l -0.09,0.36 -0.27,0.72 c -0.18,0.72 -0.36,1.53 -0.45,2.52 -0.09,0.9 -0.18,1.89 -0.18,2.7 l -0.54,1.71 -1.62,-0.81 c -0.63,-0.72 -1.17,-1.8 -1.53,-3.06 -0.27,-1.26 -0.27,-2.61 -0.18,-3.51 l 0.18,-1.26 0.09,-0.36 c 0.63,-2.88 2.07,-5.76 4.41,-8.01 l 0.99,-0.9 1.08,-0.72 1.08,-0.63 0.18,-0.18 -2.16,-0.45 -1.98,-0.63 -1.44,-0.54 -0.45,-0.27 -1.26,-0.63 -1.17,-0.72 -0.54,-0.36 -2.43,-0.18 c -2.16,-0.36 -4.32,-0.9 -6.3,-1.44 -2.16,-0.63 -4.32,-1.26 -6.39,-1.8 l -0.36,-0.09 c 1.62,3.15 3.42,6.3 5.13,9.72 0.99,2.07 1.98,4.23 2.7,6.48 0.81,2.34 1.44,4.77 1.53,7.29 l 0.09,0.99 -0.09,0.99 -0.09,1.98 c -0.27,1.26 -0.54,2.52 -0.99,3.78 -0.9,2.43 -2.34,4.68 -3.96,6.66 l -1.17,1.35 -1.35,1.35 c -0.99,0.81 -2.07,1.62 -3.15,2.16 -1.08,0.63 -2.25,1.08 -3.42,1.35 l -1.71,0.45 -1.62,0.18 c -0.41,0.03 -0.81,0.05 -1.21,0.05 -1.81,0 -3.54,-0.31 -5.09,-0.68 -1.98,-0.45 -3.78,-1.08 -5.31,-1.89 -3.24,-1.44 -5.67,-3.33 -7.56,-5.04 -1.71,-1.53 -2.88,-2.97 -3.69,-4.05 l -0.45,0.9 c -0.36,0.99 -0.9,1.98 -1.44,2.88 -0.54,0.9 -1.08,1.8 -1.8,2.7 l -1.98,2.52 -1.08,1.17 -0.54,0.63 -0.63,0.45 -1.26,1.08 -1.35,0.81 -1.35,0.72 -1.35,0.63 -0.54,0.27 -1.53,0.45 -2.07,0.63 -1.17,0.27 -1.26,0.27 c -1.39,0.23 -2.79,0.34 -3.97,0.34 -1.45,0 -2.55,-0.18 -2.87,-0.54 0.26,0.9 -1.27,3.59 -3.23,6.04 l -0.81,0.97 -0.84,0.88 -1.58,1.51 -1.2,1 -0.46,0.38 -1.21,0.87 -1.31,0.82 -1.42,0.73 -1.47,0.59 -0.76,0.27 -0.77,0.19 -1.58,0.38 c -1.06,0.17 -2.13,0.37 -3.2,0.45 -1.07,0.12 -2.15,0.13 -3.23,0.16 -1.07,-0.01 -2.14,0 -3.2,-0.1 l -1.03,-0.12 c 0.56,1.25 1.21,2.99 1.7,5.2 0.55,2.49 0.9,5.58 0.62,9.07 -0.15,1.75 -0.46,3.61 -1.02,5.51 -0.56,1.91 -1.4,3.87 -2.63,5.77 l -1,1.38 -1.2,1.27 c -0.83,0.84 -1.82,1.58 -2.89,2.24 -1.06,0.67 -2.27,1.17 -3.48,1.59 l -1.78,0.53 -1.84,0.42 c -1.27,0.22 -2.58,0.33 -3.9,0.33 -1.29,0 -2.58,-0.11 -3.85,-0.33 -1.29,-0.21 -2.55,-0.6 -3.77,-1.05 l -1.75,-0.8 -0.84,-0.45 -0.82,-0.5 c -2.15,-1.42 -3.97,-3.18 -5.57,-5.01 -0.08,-0.1 -0.17,-0.19 -0.25,-0.29 v 10.04 c 0.48,0.32 0.96,0.69 1.4,1.1 0.92,0.9 1.64,1.94 1.94,2.83 l -0.13,1.83 -1.78,-0.43 -1.43,-0.73 v 512.29 h 465.56 V 6302.21 m -414.6,250.23 -1.73,-0.89 -0.61,-0.76 c -0.52,-0.82 -0.93,-1.73 -1.44,-2.67 -0.49,-0.95 -1.1,-1.89 -1.69,-2.62 -0.75,-0.96 -1.7,-1.85 -2.87,-2.5 l -1.88,-0.79 -1,-0.21 -1.03,-0.12 1.01,-0.28 1.08,-0.15 2.27,-0.02 c 1.55,0.13 3.09,0.55 4.56,1.25 1.12,0.52 2.45,1.45 3.46,2.77 1.03,1.27 1.69,2.92 1.71,4.38 l -0.24,1.33 -1.6,1.28 m -32.96,344.24 c -1.43,0 -2.85,0.17 -4.22,0.47 -1.07,0.22 -2.08,0.59 -3.06,1.01 l -1.43,0.73 -0.69,0.4 -0.67,0.45 c -3.19,2.19 -5.7,5.48 -7.93,8.85 v 3.68 c 0.31,0.47 0.62,0.93 0.93,1.35 1.15,1.63 2.33,3.28 3.63,4.68 1.3,1.41 2.73,2.61 4.27,3.42 1.53,0.79 3.15,1.17 4.75,1.19 l 1.97,-0.19 1.89,-0.58 c 1.16,-0.55 2.11,-1.5 2.76,-2.75 0.66,-1.24 1,-2.76 1.01,-4.21 0.03,-1.48 -0.28,-2.87 -0.77,-4.05 l -0.08,-0.18 -0.22,-0.49 -0.83,-1.45 -1.13,-1.56 -0.49,-1.41 1.41,-0.61 2.57,0.75 2.12,1.67 0.57,0.68 0.2,0.28 c 2.48,3.46 2.68,8.91 -0.02,13.14 -0.67,1.05 -1.52,2.03 -2.5,2.81 -0.99,0.77 -2.09,1.35 -3.18,1.7 l -1.61,0.39 -0.76,0.08 -0.71,0.03 c -0.15,0.01 -0.3,0.01 -0.45,0.01 -0.76,0 -1.51,-0.08 -2.2,-0.21 -2.16,-0.44 -4.17,-1.36 -5.81,-2.67 -1.65,-1.3 -2.97,-2.93 -4.1,-4.66 -1.11,-1.71 -2.07,-3.57 -2.99,-5.36 -0.07,-0.16 -0.15,-0.32 -0.23,-0.48 v 20.14 l 0.06,0.03 1.26,0.4 1.29,0.27 c 0.68,0.11 1.37,0.16 2.06,0.16 1.09,0 2.18,-0.13 3.29,-0.39 2.77,-0.44 5.88,-1.68 9.51,-2.99 3.61,-1.3 7.41,-2.44 11.52,-3.32 1.65,-0.34 3.33,-0.65 5.04,-0.87 0.47,-1.28 0.99,-3.08 1.3,-5.34 0.35,-2.47 0.45,-5.49 -0.08,-8.83 -0.26,-1.67 -0.69,-3.41 -1.34,-5.17 -0.65,-1.74 -1.54,-3.51 -2.75,-5.12 l -0.97,-1.13 -1.11,-1.03 c -0.75,-0.67 -1.61,-1.25 -2.52,-1.75 -0.9,-0.5 -1.89,-0.84 -2.92,-1.14 l -1.63,-0.39 -1.64,-0.28 c -0.79,-0.11 -1.58,-0.16 -2.37,-0.16 m -18,44.77 v 422.16 c 91.93,-26.15 159.45,-110.88 159.45,-211.08 0,-100.2 -67.52,-184.93 -159.45,-211.08 m 108.62,7.1 c -1.17,0 -2.35,0.12 -3.49,0.34 -1.8,0.27 -3.6,0.81 -5.13,1.35 -3.15,1.26 -5.76,2.88 -7.74,4.41 -1.8,1.35 -3.06,2.7 -3.96,3.78 0.63,1.62 1.26,3.24 1.8,4.77 0.63,1.98 1.17,3.96 1.71,5.94 0.36,1.98 0.81,3.87 1.17,5.76 0.63,3.78 1.26,7.02 2.16,9.72 0.54,1.8 1.35,3.33 2.52,4.68 l 0.9,0.99 0.9,0.9 1.08,0.72 0.63,0.36 0.54,0.27 c 1.42,0.71 2.99,1.01 4.69,1.01 0.23,0 0.47,-0.01 0.71,-0.02 1.98,-0.09 4.05,-0.45 6.12,-0.9 l 0.99,-0.27 0.36,-0.9 c 1.71,-3.42 3.69,-6.93 5.49,-10.44 -1.17,0.09 -2.52,0.18 -3.69,0.27 -0.99,0.05 -1.98,0.07 -2.98,0.07 -1,0 -2.02,-0.02 -3.05,-0.07 -2.07,-0.09 -4.14,-0.45 -6.12,-1.17 -1.98,-0.72 -3.78,-2.07 -5.22,-3.78 l -1.53,-2.16 -0.36,-0.63 -0.27,-0.72 -0.45,-1.53 c -0.27,-1.08 -0.36,-2.34 -0.18,-3.6 0.18,-1.26 0.63,-2.43 1.17,-3.51 2.19,-4.22 6.52,-6.69 10.61,-6.69 0.27,0 0.55,0.01 0.82,0.03 h 0.36 l 0.81,0.18 2.52,0.99 1.98,1.8 0.18,1.62 -1.44,0.27 -1.98,-0.27 -1.62,0.09 h -0.54 -0.18 c -1.26,0.18 -2.7,0.63 -3.96,1.35 -1.26,0.81 -2.34,1.8 -3.15,3.06 -0.72,1.17 -1.08,2.43 -0.99,3.69 l 0.45,1.98 0.9,1.8 c 0.72,1.44 1.89,2.61 3.33,3.51 1.53,0.9 3.24,1.53 5.13,1.98 1.89,0.36 3.78,0.72 5.85,0.81 1.17,0.18 2.52,0.18 3.78,0.27 l 0.45,-0.81 c 2.07,-3.96 1.17,-8.1 1.62,-12.51 l -2.61,-0.81 v -0.81 l 2.61,-1.53 c -0.18,-1.08 0.99,-2.16 0.63,-3.15 -0.63,-2.07 -0.99,-4.05 -2.34,-5.85 l -0.72,-1.35 -0.99,-1.17 -2.34,-1.98 c -0.9,-0.54 -1.8,-0.99 -2.79,-1.26 l -1.44,-0.45 -1.44,-0.27 c -0.75,-0.11 -1.51,-0.16 -2.27,-0.16 m 40.7,37.87 -0.72,0.18 -1.8,0.54 -0.99,0.36 -0.99,0.36 -1.89,0.81 -1.53,0.72 -1.08,0.63 -0.45,0.27 -0.9,0.54 -0.99,0.72 -1.89,1.44 c -1.17,1.08 -2.34,2.25 -3.42,3.51 l -0.81,0.99 -0.72,1.08 -0.72,0.99 -0.63,1.17 -0.63,1.08 -0.54,1.17 -0.81,2.25 c -0.54,1.62 -0.81,3.24 -0.9,4.77 -0.09,1.17 0,2.25 0.09,3.33 l 1.35,0.36 c 1.26,0.27 2.34,0.54 3.24,0.72 l 1.98,0.63 0.99,0.54 0.27,0.18 h -0.36 l -1.08,-0.09 h -2.07 c -0.6,0 -1.28,0.04 -2.09,0.04 -0.41,0 -0.85,-0.01 -1.33,-0.04 h -0.72 c 0.45,2.7 1.35,5.04 2.43,7.02 0.81,1.44 1.71,2.88 2.79,4.05 1.08,1.26 2.43,2.34 3.87,3.33 2.88,1.8 6.39,2.7 10.17,3.06 h 0.45 l -0.18,0.36 c -1.62,3.51 -2.52,7.02 -2.43,10.44 0.09,1.71 0.36,3.33 0.9,4.95 0.45,1.53 1.26,2.97 2.16,4.41 1.08,1.98 2.79,3.96 4.86,5.58 l 0.36,-0.54 c 0.63,-1.26 1.26,-2.25 1.71,-2.97 l 1.08,-1.89 0.45,-0.99 0.09,-0.27 0.09,0.36 -0.09,1.08 -0.45,2.07 c -0.27,0.9 -0.63,1.98 -0.99,3.15 l -0.36,1.44 c 0.9,0.54 1.89,1.08 2.88,1.62 1.44,0.72 2.97,1.26 4.59,1.71 l 2.34,0.36 0.78,-1.22 c -0.21,-0.01 -0.41,-0.02 -0.6,-0.04 -0.99,-0.09 -1.71,-0.18 -2.25,-0.36 l -0.81,-0.18 0.81,-0.27 0.9,-0.27 1.17,-0.36 c 0.65,-0.22 1.36,-0.43 2.13,-0.65 l 0.39,-0.61 h 1.26 l 0.05,0.07 c 0.58,-0.16 1.19,-0.29 1.84,-0.34 l -0.27,-0.09 -0.36,-0.18 c -0.18,-0.18 -0.09,-0.45 0.99,-0.81 l 0.54,-0.09 1.26,-0.45 c 1.08,-0.36 2.25,-0.81 3.15,-1.08 l -0.63,-0.54 0.09,-1.53 -0.54,-0.54 -0.63,-1.26 0.27,-1.35 c 0.36,-0.45 1.08,-0.72 2.25,-1.08 l 0.09,-0.54 c 0.09,-0.27 0.54,-0.54 1.62,-0.72 0,0 1.35,0 2.88,-0.45 l 2.07,-0.9 1.17,-1.08 -0.99,0.27 -1.17,-0.54 -0.72,-0.18 -1.35,-0.72 -0.72,-1.44 v -0.45 l 0.09,-0.45 0.09,-0.27 0.09,-0.09 v -0.18 l 0.36,-0.9 -0.09,-0.09 -0.27,-0.36 0.72,-1.26 0.45,-0.81 1.08,-2.07 0.81,-2.61 0.27,-1.98 0.09,-0.45 0.09,-1.26 c 0,-1.08 -0.09,-2.61 -0.36,-4.32 l -0.63,-2.61 -0.45,-1.44 -0.63,-0.63 c -2.88,3.69 -7.29,6.84 -13.77,7.2 0,0 0.54,-4.14 -2.25,-6.39 -0.27,-1.71 -1.35,-3.06 -2.34,-3.87 -1.08,-0.81 -2.07,-1.17 -2.07,-1.17 3.51,-5.4 8.46,-7.74 13.05,-8.37 l -0.18,-0.81 -0.99,-1.17 -1.98,-1.89 c -1.26,-1.08 -2.61,-1.89 -3.51,-2.43 l -1.17,-0.54 -0.36,-0.18 -1.89,-0.72 -2.7,-0.54 -2.34,-0.18 -0.9,0.09 -1.44,-0.09 -0.18,-0.36 -0.09,-0.18 -0.9,-0.18 h -0.18 -0.18 l -0.27,-0.09 -0.45,-0.18 -0.36,-0.18 -0.81,-1.35 v -1.53 l 0.27,-0.72 v -1.26 l 0.81,-0.72 -1.53,0.45 -1.8,1.35 c -1.17,1.08 -1.89,2.25 -1.89,2.25 l -1.44,1.08 -0.45,-0.27 c -0.9,0.9 -1.53,1.35 -2.07,1.44 l -1.35,-0.36 -0.72,-1.17 -0.27,-0.72 -1.26,-0.72 -0.27,-0.81 -2.52,2.16 -0.99,0.9 -0.36,0.45 -1.17,0.45 v -0.45 l 0.09,-0.27 -2.07,2.25 -2.07,1.89 -0.9,0.81 -0.72,0.63 -0.63,0.63 v -0.09 l 0.18,-0.72 0.9,-2.16 c 0.81,-1.71 2.25,-4.05 4.5,-6.12 2.16,-2.07 4.95,-3.96 8.37,-5.31 1.71,-0.63 3.51,-1.17 5.49,-1.44 0.92,-0.12 1.86,-0.19 2.82,-0.19 1.12,0 2.27,0.09 3.48,0.28 l 0.9,0.18 0.81,0.27 0.81,0.27 0.72,0.27 c 0.99,0.45 1.89,0.9 2.79,1.44 1.8,0.99 3.42,2.16 4.86,3.42 1.44,1.26 2.79,2.7 3.78,4.05 l 1.53,2.07 0.45,0.81 -0.09,-0.36 -0.36,-1.08 -0.36,-0.99 c -0.54,-1.35 -1.17,-2.7 -1.98,-3.87 -1.53,-2.34 -3.42,-4.5 -5.58,-6.21 -0.81,-0.63 -1.71,-1.17 -2.61,-1.71 l -1.53,-0.63 -0.81,-0.27 -0.9,-0.27 c -2.25,-0.54 -4.86,-0.99 -7.56,-1.62 m -8.01,36.54 -2.52,-1.26 -1.26,-1.89 c -0.54,-1.17 -1.08,-2.52 -1.26,-4.14 -0.09,-0.81 -0.09,-1.71 0.09,-2.61 0.09,-0.9 0.36,-1.8 0.81,-2.7 l 1.62,-2.43 2.07,-1.62 0.99,-0.54 1.08,-0.45 1.08,-0.36 0.45,-0.09 0.54,-0.09 c 0.71,-0.12 1.45,-0.18 2.19,-0.18 0.97,0 1.94,0.11 2.85,0.36 1.71,0.54 3.24,1.44 4.41,2.61 1.17,1.17 1.89,2.61 2.43,4.14 0.45,1.44 0.72,3.06 0.63,4.41 -0.27,-1.26 -0.72,-2.88 -1.35,-4.05 -0.81,-1.26 -1.71,-2.43 -2.88,-3.15 -1.17,-0.72 -2.43,-1.08 -3.69,-1.17 -1.26,0 -2.43,0.27 -3.6,0.72 l -0.36,0.18 -0.27,0.18 -0.63,0.27 -0.63,0.45 -0.63,0.54 -1.62,2.16 c -0.27,0.81 -0.36,1.71 -0.36,2.79 0.09,0.99 0.27,2.07 0.45,3.15 0,0 0.09,0.99 0.18,2.07 0.09,1.08 0,2.25 -0.81,2.7 m 21.86,25 c 0.65,0 1.34,-0.14 1.99,-0.34 l 0.72,-0.27 0.72,-0.36 0.63,-0.36 0.27,-0.27 0.27,-0.18 c 1.08,-0.72 1.89,-1.62 2.43,-2.79 0.63,-1.08 0.99,-2.43 0.81,-3.78 -0.09,-1.35 -0.54,-2.7 -1.26,-3.96 -0.63,-1.17 -1.8,-2.43 -2.79,-3.33 1.17,0.63 2.52,1.71 3.51,2.79 0.99,1.26 1.89,2.61 2.34,4.23 0.54,1.62 0.45,3.42 0.09,5.04 -0.45,1.71 -1.26,3.24 -2.34,4.5 l -0.36,0.45 -0.36,0.36 -0.81,0.72 -0.9,0.72 -0.99,0.63 c -0.81,0.36 -1.62,0.72 -2.52,0.9 -0.67,0.2 -1.4,0.3 -2.1,0.3 -0.23,0 -0.46,-0.01 -0.69,-0.03 -0.99,-0.09 -1.98,-0.27 -2.79,-0.63 l -2.25,-1.26 c -1.35,-0.99 -2.25,-2.07 -3.06,-3.15 0,0 -0.63,-0.9 -0.99,-2.07 -0.45,-1.08 -0.54,-2.34 0.18,-2.79 0.21,-0.12 0.44,-0.17 0.67,-0.17 0.66,0 1.39,0.4 2.12,0.8 0.9,0.63 1.62,1.26 1.62,1.26 l 2.61,1.89 2.52,1.08 c 0.23,0.05 0.47,0.07 0.71,0.07 m -29.06,-59.83 -1.8,0.27 c -2.16,0.54 -4.23,1.17 -6.21,1.8 -2.07,0.72 -4.14,1.53 -6.21,2.25 l -1.53,0.36 -0.09,0.27 -0.72,1.35 -0.27,0.63 -0.27,0.54 -0.36,1.17 -0.09,0.63 -0.18,0.54 c -0.27,1.53 -0.27,3.06 0,4.41 0.27,1.26 0.63,2.52 1.26,3.51 l 0.45,0.81 0.45,0.72 0.18,0.36 0.27,0.27 0.54,0.54 1.17,1.08 1.26,0.99 0.18,0.09 v -0.45 c 0,-1.98 0.27,-4.05 0.72,-6.03 0.36,-1.08 0.63,-2.07 1.08,-3.06 l 0.63,-1.44 0.63,-1.35 0.72,-1.35 0.9,-1.35 0.9,-1.26 0.9,-1.17 c 1.26,-1.62 2.79,-2.97 4.23,-4.23 l 1.26,-0.9 m -36.53,5.5 c 27.91,27.67 48.59,62.61 58.93,101.72 l -0.08,-1.47 0.09,-0.81 0.18,-0.81 c 0.36,-2.16 1.44,-4.23 2.79,-6.03 1.26,-1.71 2.79,-3.24 4.32,-4.68 l -0.18,-0.09 -1.62,-0.36 -0.81,-0.18 -0.72,-0.27 c -1.98,-0.81 -3.6,-1.8 -4.86,-2.97 -1.35,-1.17 -2.25,-2.52 -3.06,-3.78 l -0.54,-0.99 -0.36,-0.99 -0.18,-0.54 -0.18,-0.54 -0.18,-0.99 -0.18,-1.8 -0.09,-1.71 c 0,-0.9 0,-1.8 0.09,-2.61 l -1.08,-0.99 c -2.79,-2.25 -4.77,-4.95 -5.94,-7.65 -0.81,-1.62 -1.53,-3.42 -1.98,-5.31 -0.36,-1.8 -0.54,-3.78 -0.36,-5.67 l 0.09,-1.53 0.18,-1.44 c 0.18,-0.99 0.54,-1.89 0.81,-2.88 0.45,-1.17 0.9,-2.34 1.53,-3.51 -1.35,-0.09 -2.61,-0.27 -3.87,-0.54 -0.99,-0.18 -1.89,-0.45 -2.88,-0.72 l -1.35,-0.54 -1.35,-0.63 c -1.8,-0.9 -3.33,-1.98 -4.77,-3.24 -1.44,-1.26 -2.52,-2.79 -3.69,-4.32 -1.62,-2.34 -2.97,-5.4 -3.6,-9 l -0.27,-1.44 -2.34,-1.17 -1.44,-0.9 -1.53,-1.08 -0.72,-0.72 -0.36,-0.36 -0.36,-0.45 -0.63,-0.9 -0.63,-0.9 c -0.81,-1.26 -1.44,-2.79 -1.8,-4.5 -0.36,-1.71 -0.45,-3.69 -0.09,-5.76 l 0.18,-0.72 0.18,-0.81 0.45,-1.62 0.09,-0.09 c -2.07,0.63 -4.14,1.08 -6.3,1.35 -0.73,0.09 -1.45,0.14 -2.17,0.14 -1.51,0 -3,-0.22 -4.4,-0.77 l -0.81,-0.27 -0.72,-0.36 -1.43,-0.8 m 87.11,33.29 0.45,0.81 1.08,2.34 c 0.63,1.62 1.26,3.42 1.62,5.31 0.36,1.89 0.54,3.87 0.54,5.94 0,1.08 0,2.07 -0.18,3.06 l -0.09,0.81 -0.18,0.9 -0.18,0.81 -0.27,0.81 c -0.72,2.16 -1.89,3.96 -3.06,5.58 -1.26,1.53 -2.61,2.88 -3.96,4.05 -2.88,2.25 -5.94,3.78 -8.82,4.59 -0.71,0.2 -1.4,0.35 -2.07,0.47 l 0.72,0.52 1.17,0.27 c 1.71,-0.27 3.33,-0.45 4.86,-0.99 l 2.16,-0.72 1.08,-0.45 0.99,-0.45 0.36,-0.27 1.08,-0.63 1.44,-0.99 1.71,-1.17 0.81,-0.72 0.72,-0.63 1.44,-1.35 0.54,-0.45 c 0.72,-2.79 1.71,-5.22 2.34,-7.47 l 0.18,-0.9 0.18,-0.81 0.18,-1.62 c 0,-0.99 0,-2.07 -0.18,-3.15 -0.36,-2.7 -1.26,-5.4 -2.52,-7.92 -0.72,-1.26 -1.53,-2.43 -2.43,-3.6 l -0.72,-0.81 -0.72,-0.9 -0.27,-0.27 m -1.17,20.16 v 0 m -29.61,18.63 v 0.27 l 0.27,1.53 0.36,1.62 0.18,0.72 0.18,0.36 0.18,0.36 0.36,0.72 0.45,0.81 c 0.63,0.99 1.44,1.98 2.52,2.79 0.99,0.9 2.25,1.62 3.78,2.16 l 0.54,0.18 0.54,0.18 1.26,0.27 0.63,0.09 0.63,1.08 1.53,1.17 h 0.18 l 1.17,-2.16 c 1.62,-1.44 3.33,-3.33 5.04,-4.77 1.53,-1.35 3.15,-3.15 4.68,-4.77 l 1.17,-1.62 -1.44,0.63 c -1.8,0.63 -3.78,1.17 -5.76,1.53 l -1.53,0.18 -1.53,0.18 h -1.53 -1.53 l -1.62,-0.09 -1.53,-0.18 c -1.08,-0.09 -2.16,-0.36 -3.15,-0.63 -1.98,-0.54 -3.87,-1.35 -5.58,-2.34 l -0.45,-0.27 m 11.97,16.02 -0.63,0.72 c -1.44,1.62 -2.88,3.15 -3.87,4.86 -1.08,1.62 -1.62,3.42 -1.8,5.13 l 0.09,0.72 v 0.63 1.26 l 0.27,1.26 0.36,1.35 c 0.54,1.62 1.44,3.15 2.7,4.5 0.9,1.08 2.07,2.16 3.33,3.24 1.26,1.08 2.61,2.25 4.05,3.51 2.79,2.52 5.94,5.22 8.64,8.28 1.17,1.26 2.25,2.61 3.24,3.96 1.35,-0.18 3.15,-0.72 5.31,-1.53 2.34,-0.9 4.95,-2.34 7.65,-4.5 1.35,-1.08 2.7,-2.25 3.78,-3.69 1.17,-1.44 2.25,-3.15 2.97,-4.95 l 0.54,-1.44 0.36,-1.44 c 0.27,-0.99 0.36,-2.07 0.36,-3.06 0,-1.08 -0.18,-2.07 -0.54,-3.15 l -0.45,-1.53 -0.63,-1.62 c -0.9,-2.07 -2.07,-3.96 -3.51,-5.58 l -2.34,-2.16 -1.44,-0.81 -0.63,-0.45 -0.81,-0.36 c -3.96,-1.8 -8.46,-2.25 -12.87,-2.52 h -0.9 c -0.63,1.17 -1.26,2.34 -1.8,3.42 -0.81,1.8 -1.62,3.69 -2.07,5.49 -0.54,1.8 -0.99,3.69 -0.9,5.4 0,1.71 0.45,3.33 1.26,4.68 l 1.26,1.62 1.44,1.35 c 0.99,0.72 2.34,1.08 3.69,1.08 1.44,-0.09 2.88,-0.54 4.23,-1.26 1.26,-0.72 2.34,-1.71 3.15,-2.7 l 0.09,-0.18 0.27,-0.45 0.81,-1.44 0.81,-1.71 0.9,-1.08 1.26,0.9 c 0.45,0.63 0.72,1.53 0.72,2.52 0,0.99 -0.18,1.98 -0.45,2.7 l -0.27,0.81 -0.18,0.36 c -1.75,3.76 -6.12,6.58 -10.98,6.58 -0.15,0 -0.3,0 -0.45,-0.01 -1.26,-0.09 -2.52,-0.36 -3.69,-0.81 -1.17,-0.45 -2.16,-1.17 -2.97,-1.89 l -1.17,-1.26 -0.45,-0.54 -0.36,-0.63 -1.17,-2.43 c -0.81,-2.07 -0.9,-4.23 -0.63,-6.3 0.36,-2.16 1.17,-4.05 2.07,-5.94 0.9,-1.8 1.89,-3.51 3.06,-5.22 0.72,-0.99 1.44,-2.07 2.16,-3.06 -4.05,-0.18 -8.01,-0.18 -11.88,-0.54 l -0.99,-0.09 m 16.38,102.15 c -0.99,1.35 -2.07,2.7 -3.24,3.96 -2.7,3.15 -5.85,5.85 -8.64,8.28 -1.44,1.26 -2.79,2.43 -4.05,3.51 -1.26,1.17 -2.43,2.16 -3.33,3.24 -1.26,1.44 -2.16,2.88 -2.79,4.59 l -0.36,1.26 -0.18,1.26 v 1.26 0.72 l -0.09,0.63 c 0.18,1.71 0.81,3.51 1.8,5.13 1.08,1.71 2.43,3.33 3.96,4.86 l 0.54,0.72 0.99,-0.09 c 3.87,-0.36 7.83,-0.36 11.88,-0.45 -0.72,-1.08 -1.44,-2.16 -2.16,-3.15 -1.17,-1.71 -2.16,-3.42 -3.06,-5.22 -0.9,-1.8 -1.71,-3.78 -2.07,-5.85 -0.27,-2.07 -0.18,-4.32 0.63,-6.39 l 1.17,-2.43 0.36,-0.54 0.45,-0.63 1.17,-1.26 c 0.81,-0.72 1.8,-1.44 2.97,-1.89 1.17,-0.45 2.43,-0.72 3.69,-0.72 0.22,-0.01 0.44,-0.02 0.66,-0.02 4.77,0 9.05,2.8 10.77,6.5 l 0.18,0.36 0.27,0.81 c 0.27,0.72 0.45,1.71 0.45,2.7 0,0.99 -0.27,1.98 -0.72,2.61 l -1.26,0.9 -0.9,-1.17 -0.81,-1.71 -0.81,-1.44 -0.27,-0.45 -0.09,-0.18 c -0.81,-0.99 -1.89,-1.98 -3.15,-2.7 -1.35,-0.72 -2.79,-1.17 -4.23,-1.17 -0.14,-0.01 -0.27,-0.01 -0.41,-0.01 -1.21,0 -2.39,0.35 -3.28,1 l -1.44,1.35 -1.26,1.62 c -0.81,1.35 -1.26,2.97 -1.26,4.68 -0.09,1.8 0.36,3.6 0.9,5.49 0.45,1.8 1.26,3.6 2.07,5.4 0.54,1.08 1.17,2.34 1.8,3.42 h 0.9 c 4.41,-0.27 8.91,-0.72 12.87,-2.52 l 0.81,-0.36 0.63,-0.45 1.44,-0.81 2.34,-2.16 c 1.44,-1.62 2.61,-3.51 3.51,-5.58 l 0.63,-1.53 0.45,-1.62 c 0.36,-0.99 0.54,-2.07 0.54,-3.06 0,-1.08 -0.09,-2.16 -0.36,-3.15 l -0.36,-1.44 -0.54,-1.44 c -0.72,-1.8 -1.8,-3.42 -2.97,-4.86 -1.08,-1.44 -2.43,-2.7 -3.78,-3.78 -2.7,-2.16 -5.31,-3.51 -7.65,-4.5 -2.16,-0.81 -3.96,-1.26 -5.31,-1.53 m -25.75,25.84 c -10.33,39.07 -30.99,73.99 -58.86,101.65 l 1.36,-0.77 0.72,-0.36 0.81,-0.27 c 1.47,-0.51 3.02,-0.75 4.61,-0.75 0.65,0 1.3,0.04 1.96,0.12 2.16,0.27 4.23,0.81 6.3,1.35 l -0.09,-0.09 -0.45,-1.62 -0.18,-0.72 -0.18,-0.81 c -0.36,-2.07 -0.27,-4.05 0.09,-5.76 0.36,-1.71 0.99,-3.24 1.8,-4.5 l 0.63,-0.9 0.63,-0.9 0.36,-0.36 0.36,-0.45 0.72,-0.63 1.53,-1.08 1.44,-0.99 2.34,-1.17 0.27,-1.44 c 0.63,-3.51 1.98,-6.57 3.6,-9 1.17,-1.53 2.25,-2.97 3.69,-4.32 1.44,-1.26 2.97,-2.34 4.77,-3.24 l 1.35,-0.63 1.35,-0.45 c 0.99,-0.36 1.89,-0.63 2.88,-0.81 1.26,-0.27 2.52,-0.36 3.87,-0.45 -0.63,-1.17 -1.08,-2.34 -1.53,-3.6 -0.27,-0.9 -0.63,-1.89 -0.81,-2.88 l -0.18,-1.44 -0.09,-1.44 c -0.18,-1.98 0,-3.96 0.36,-5.76 0.45,-1.89 1.17,-3.6 1.98,-5.31 1.17,-2.61 3.15,-5.31 5.94,-7.65 l 1.08,-0.9 c -0.09,-0.9 -0.09,-1.8 -0.09,-2.7 l 0.09,-1.71 0.18,-1.8 0.18,-0.99 0.18,-0.54 0.18,-0.45 0.36,-0.99 0.54,-0.99 c 0.81,-1.35 1.71,-2.7 3.06,-3.87 1.26,-1.17 2.88,-2.16 4.86,-2.88 l 0.72,-0.27 0.81,-0.27 1.62,-0.36 h 0.18 c -1.53,-1.53 -3.06,-3.06 -4.32,-4.77 -1.35,-1.8 -2.43,-3.87 -2.79,-6.03 l -0.18,-0.81 -0.09,-0.81 0.08,-1.43 m 10.99,17.36 h -0.18 l -1.53,0.18 h -0.63 l -0.63,0.09 -1.26,0.27 -0.54,0.18 -0.54,0.18 c -1.53,0.54 -2.79,1.26 -3.78,2.16 -1.08,0.9 -1.89,1.89 -2.52,2.88 l -0.45,0.72 -0.36,0.72 -0.18,0.45 -0.18,0.36 -0.18,0.72 -0.36,1.62 -0.27,1.53 v 0.18 l 0.45,-0.27 c 1.71,-0.99 3.6,-1.8 5.58,-2.34 0.99,-0.27 2.07,-0.54 3.15,-0.63 l 1.53,-0.18 1.62,-0.09 h 1.53 l 1.53,0.09 1.53,0.09 1.53,0.27 c 1.98,0.27 3.96,0.9 5.76,1.53 l 1.44,0.63 -1.17,-1.35 c -1.53,-1.71 -3.15,-3.24 -4.68,-4.59 -1.71,-1.44 -3.42,-2.79 -5.04,-4.32 l -1.17,-1.08 m 0.18,12.96 h -1.26 l -1.26,0.45 -1.26,0.36 -2.34,0.45 c -1.62,0.45 -3.15,1.08 -4.59,1.8 -0.99,0.45 -1.98,1.08 -2.88,1.62 l 0.36,1.44 c 0.36,1.17 0.72,2.25 0.99,3.15 l 0.45,2.07 0.09,1.17 -0.09,0.27 -0.09,-0.27 -0.45,-0.99 -1.08,-1.8 c -0.45,-0.81 -1.08,-1.71 -1.71,-2.97 l -0.36,-0.63 c -2.07,1.71 -3.78,3.69 -4.86,5.58 -0.9,1.44 -1.71,2.88 -2.16,4.5 -0.54,1.53 -0.81,3.24 -0.9,4.95 -0.09,3.33 0.81,6.84 2.43,10.35 l 0.18,0.36 -0.45,0.09 c -3.78,0.36 -7.29,1.26 -10.17,3.06 -1.44,0.9 -2.79,1.98 -3.87,3.24 -1.08,1.26 -1.98,2.61 -2.79,4.05 -1.08,1.98 -1.98,4.41 -2.43,7.11 l 0.72,-0.09 c 0.48,-0.03 0.92,-0.04 1.33,-0.04 0.81,0 1.49,0.04 2.09,0.04 h 2.07 l 1.08,-0.09 h 0.36 l -0.27,0.18 -0.99,0.54 -1.98,0.63 c -0.9,0.27 -1.98,0.45 -3.24,0.72 l -1.35,0.36 c -0.09,1.08 -0.18,2.25 -0.09,3.33 0.09,1.62 0.36,3.24 0.9,4.77 l 0.81,2.34 0.54,1.08 0.63,1.17 0.63,1.08 0.72,1.08 0.72,0.99 0.81,0.99 c 1.08,1.35 2.25,2.43 3.42,3.51 l 1.89,1.44 0.99,0.72 0.9,0.54 0.45,0.27 1.08,0.63 1.53,0.81 1.89,0.72 0.99,0.36 0.99,0.36 1.8,0.54 0.72,0.27 c 2.7,-0.72 5.31,-1.17 7.56,-1.71 l 0.9,-0.27 0.81,-0.27 1.53,-0.63 c 0.9,-0.45 1.8,-1.08 2.61,-1.71 2.16,-1.62 4.05,-3.78 5.58,-6.21 0.81,-1.17 1.44,-2.52 1.98,-3.78 l 0.36,-1.08 0.36,-1.08 0.09,-0.36 -0.45,0.81 -1.53,2.07 c -0.99,1.44 -2.34,2.79 -3.78,4.05 -1.44,1.26 -3.06,2.43 -4.86,3.51 -0.9,0.45 -1.8,0.9 -2.79,1.35 l -0.72,0.27 -0.81,0.27 -0.81,0.27 -0.9,0.18 c -1.21,0.19 -2.36,0.28 -3.48,0.28 -0.96,0 -1.9,-0.06 -2.82,-0.19 -1.98,-0.27 -3.78,-0.72 -5.49,-1.44 -3.42,-1.26 -6.21,-3.24 -8.37,-5.31 -2.25,-2.07 -3.69,-4.41 -4.5,-6.12 l -0.81,-2.07 -0.27,-0.81 v -0.09 l 0.63,0.63 0.72,0.63 0.9,0.81 2.07,1.89 2.07,2.25 -0.09,-0.27 v -0.36 l 1.17,0.45 0.36,0.36 0.99,0.9 2.52,2.16 0.27,-0.81 1.26,-0.72 0.27,-0.63 0.72,-1.17 1.35,-0.45 c 0.54,0.09 1.17,0.54 2.07,1.44 l 0.45,-0.27 1.44,1.08 c 0,0 0.72,1.17 1.89,2.25 l 1.8,1.35 1.53,0.45 -0.81,-0.72 v -1.26 l -0.27,-0.72 v -1.53 l 0.81,-1.35 0.36,-0.18 0.45,-0.18 h 0.27 l 0.18,-0.09 h 0.18 l 0.9,-0.18 0.09,-0.18 0.18,-0.36 h 1.44 0.9 l 2.34,-0.09 2.7,-0.63 1.89,-0.72 0.36,-0.18 1.17,-0.54 c 0.9,-0.54 2.25,-1.35 3.51,-2.43 l 1.98,-1.8 0.99,-1.17 0.18,-0.9 c -4.59,-0.63 -9.54,-2.88 -13.05,-8.37 0,0 0.99,-0.36 2.07,-1.17 0.99,-0.81 2.07,-2.07 2.34,-3.87 2.79,-2.25 2.25,-6.39 2.25,-6.39 6.48,0.45 10.89,3.51 13.77,7.2 l 0.63,-0.54 0.45,-1.53 c 0.27,-0.9 0.54,-1.71 0.63,-2.61 0.27,-1.62 0.36,-3.15 0.36,-4.23 l -0.09,-1.26 -0.09,-0.45 -0.27,-1.98 -0.81,-2.61 -1.08,-2.16 -0.45,-0.81 -0.72,-1.17 0.27,-0.36 0.09,-0.18 -0.36,-0.81 v -0.18 l -0.09,-0.18 -0.09,-0.27 -0.09,-0.45 v -0.45 l 0.72,-1.35 1.35,-0.81 0.72,-0.18 1.17,-0.54 0.99,0.36 -1.17,-1.17 -2.07,-0.9 c -1.53,-0.45 -2.88,-0.45 -2.88,-0.45 -1.08,-0.18 -1.53,-0.45 -1.62,-0.72 l -0.09,-0.54 c -1.17,-0.36 -1.89,-0.63 -2.25,-1.08 l -0.27,-1.35 0.63,-1.26 0.54,-0.54 -0.09,-1.44 0.63,-0.63 c -0.9,-0.27 -2.07,-0.72 -3.15,-1.08 l -1.26,-0.36 -0.54,-0.18 c -1.08,-0.36 -1.17,-0.63 -0.99,-0.81 l 0.36,-0.18 0.27,-0.09 c -1.08,-0.09 -2.07,-0.36 -2.97,-0.63 -0.99,-0.27 -1.89,-0.63 -2.7,-0.9 l -1.17,-0.36 -0.9,-0.27 -0.81,-0.27 0.81,-0.18 c 0.54,-0.09 1.26,-0.27 2.25,-0.36 0.43,-0.04 0.91,-0.06 1.43,-0.06 1.72,0 3.84,0.25 6.13,0.87 2.88,0.9 5.94,2.34 8.82,4.68 1.35,1.08 2.7,2.43 3.96,4.05 1.17,1.53 2.34,3.33 3.06,5.49 l 0.27,0.81 0.18,0.9 0.18,0.81 0.09,0.81 c 0.18,0.99 0.18,2.07 0.18,3.06 0,2.07 -0.18,4.05 -0.54,5.94 -0.36,1.98 -0.99,3.69 -1.62,5.31 l -1.08,2.34 -0.45,0.81 0.27,-0.27 0.72,-0.9 0.72,-0.81 c 0.9,-1.08 1.71,-2.34 2.43,-3.6 1.26,-2.52 2.16,-5.22 2.52,-7.92 0.18,-0.99 0.18,-2.07 0.18,-3.15 l -0.18,-1.62 -0.18,-0.81 -0.18,-0.9 c -0.63,-2.25 -1.62,-4.68 -2.34,-7.47 l -0.54,-0.45 -1.44,-1.26 -0.72,-0.72 -0.81,-0.63 -1.71,-1.26 -1.44,-0.99 -1.08,-0.63 -0.36,-0.27 -0.99,-0.54 -1.08,-0.45 -2.16,-0.9 c -1.53,-0.54 -3.15,-0.99 -4.86,-1.26 l -1.17,-0.18 -1.26,-0.54 -1.35,-0.54 m -14.07,22.17 c -0.24,0 -0.47,-0.07 -0.69,-0.21 -0.72,-0.45 -0.63,-1.71 -0.18,-2.79 0.36,-1.08 1.08,-2.07 1.08,-2.07 0.72,-0.99 1.62,-2.16 2.97,-3.15 l 2.25,-1.17 c 0.81,-0.36 1.8,-0.63 2.79,-0.72 0.9,0 1.89,0.09 2.79,0.27 0.9,0.18 1.71,0.54 2.52,0.99 l 0.99,0.54 0.9,0.72 0.81,0.81 0.36,0.36 0.36,0.36 c 1.08,1.26 1.89,2.79 2.34,4.5 0.36,1.71 0.45,3.51 -0.09,5.04 -0.45,1.62 -1.35,3.06 -2.34,4.23 -0.99,1.08 -2.34,2.16 -3.51,2.79 0.99,-0.9 2.16,-2.07 2.79,-3.33 0.72,-1.26 1.17,-2.61 1.26,-3.96 0.18,-1.35 -0.18,-2.7 -0.81,-3.78 -0.54,-1.08 -1.35,-2.07 -2.43,-2.79 l -0.27,-0.18 -0.27,-0.18 -0.63,-0.45 -0.72,-0.27 -0.72,-0.27 c -0.69,-0.27 -1.43,-0.39 -2.1,-0.39 -0.21,0 -0.41,0.01 -0.6,0.03 l -2.52,1.08 -2.61,1.98 c 0,0 -0.72,0.54 -1.62,1.17 -0.72,0.4 -1.45,0.84 -2.1,0.84 m -6.52,38.26 c -0.71,0 -1.42,-0.07 -2.09,-0.22 l -0.54,-0.09 -0.45,-0.09 -1.08,-0.27 -1.08,-0.45 -0.99,-0.63 -2.07,-1.62 -1.62,-2.34 c -0.45,-0.9 -0.72,-1.89 -0.81,-2.79 -0.18,-0.9 -0.18,-1.8 -0.09,-2.61 0.18,-1.53 0.72,-2.97 1.26,-4.05 l 1.26,-1.98 2.52,-1.26 c 0.81,0.45 0.9,1.62 0.81,2.7 -0.09,1.17 -0.18,2.07 -0.18,2.07 -0.18,1.08 -0.36,2.16 -0.45,3.15 0,1.08 0.09,1.98 0.36,2.79 l 1.62,2.25 0.63,0.45 0.63,0.45 0.63,0.36 0.27,0.18 0.36,0.09 c 1.05,0.4 2.1,0.74 3.21,0.74 0.13,0 0.26,-0.01 0.39,-0.02 1.26,-0.09 2.52,-0.45 3.69,-1.17 1.17,-0.72 2.07,-1.8 2.88,-3.15 0.63,-1.17 1.08,-2.7 1.35,-4.05 0.09,1.35 -0.18,3.06 -0.63,4.41 -0.54,1.53 -1.26,2.97 -2.43,4.14 -1.17,1.26 -2.7,2.16 -4.41,2.61 -0.94,0.26 -1.95,0.4 -2.95,0.4 m -24.95,-6.16 -0.18,0.09 -1.26,0.99 -1.17,1.08 -0.54,0.63 -0.27,0.27 -0.18,0.36 -0.45,0.63 -0.45,0.81 c -0.63,0.99 -0.99,2.25 -1.26,3.6 -0.27,1.26 -0.27,2.79 0,4.32 l 0.18,0.63 0.09,0.54 0.36,1.17 0.27,0.63 0.27,0.63 0.72,1.35 0.09,0.18 1.53,0.45 c 2.07,0.63 4.14,1.44 6.21,2.16 1.98,0.63 4.05,1.35 6.21,1.8 l 1.8,0.27 -1.26,-0.9 c -1.44,-1.26 -2.97,-2.61 -4.23,-4.14 l -0.9,-1.26 -0.9,-1.26 -0.81,-1.26 -0.81,-1.35 -0.63,-1.44 -0.63,-1.44 c -0.45,-0.99 -0.72,-1.98 -1.08,-3.06 -0.45,-1.98 -0.72,-4.05 -0.72,-5.94 v -0.54 m 48.96,7.29 v 0 m -63.99,9.9 c -1.98,0 -3.78,0.27 -5.4,0.99 l -0.54,0.27 -0.63,0.36 -1.08,0.72 -0.9,0.9 -0.9,0.99 c -1.17,1.35 -1.98,2.88 -2.52,4.68 -0.9,2.79 -1.53,5.94 -2.16,9.81 -0.36,1.8 -0.81,3.78 -1.17,5.76 -0.54,1.89 -1.08,3.87 -1.71,5.85 -0.54,1.62 -1.17,3.24 -1.8,4.77 0.9,1.08 2.16,2.43 3.96,3.78 1.98,1.53 4.59,3.15 7.74,4.41 1.53,0.63 3.33,1.08 5.13,1.44 1.1,0.16 2.23,0.25 3.35,0.25 0.81,0 1.62,-0.05 2.41,-0.16 l 1.53,-0.27 1.44,-0.45 c 0.99,-0.27 1.89,-0.72 2.79,-1.26 l 2.43,-1.98 1.17,-1.17 0.99,-1.35 c 1.35,-1.8 2.43,-3.78 3.06,-5.85 0.36,-0.99 -2.16,-2.07 -1.98,-3.15 l -2.61,-1.53 v -0.81 l 2.61,-0.81 c -0.45,-4.32 -0.9,-8.55 -2.97,-12.51 l 0.27,-0.81 c -1.26,0.09 -2.34,0.18 -3.51,0.27 -1.98,0.18 -3.78,0.45 -5.67,0.81 -1.89,0.45 -3.51,1.08 -5.04,1.98 -1.44,0.9 -2.61,2.16 -3.33,3.6 l -0.81,1.71 -0.45,1.98 c -0.09,1.26 0.27,2.52 0.99,3.78 0.81,1.17 1.89,2.16 3.15,2.97 1.26,0.72 2.7,1.17 3.96,1.35 h 0.18 l 0.54,0.09 h 1.62 l 1.98,-0.18 1.44,0.18 -0.18,1.62 -1.98,1.8 -2.52,0.99 -0.81,0.18 h -0.36 c -0.33,0.04 -0.66,0.05 -1,0.05 -4.04,0 -8.27,-2.46 -10.43,-6.62 -0.54,-1.08 -0.99,-2.34 -1.17,-3.6 -0.18,-1.26 -0.09,-2.43 0.18,-3.6 l 0.45,-1.53 0.27,-0.72 0.36,-0.63 1.53,-2.16 c 1.44,-1.71 3.24,-2.97 5.22,-3.78 1.98,-0.72 4.05,-1.08 6.12,-1.17 0.86,-0.04 1.7,-0.06 2.53,-0.06 1.18,0 2.34,0.05 3.5,0.15 1.17,0.09 2.52,0.18 3.69,0.27 -1.8,-3.6 -3.78,-7.02 -5.49,-10.53 l -0.36,-0.9 -0.99,-0.18 c -2.07,-0.54 -4.14,-0.9 -6.12,-0.99 m -13.47,3.75 c -25.01,23.61 -55.45,41.55 -89.22,51.71 0.47,-0.04 0.94,-0.05 1.4,-0.05 0.8,0 1.6,0.04 2.38,0.1 3.24,0.28 6.73,1.41 10.27,2.46 3.59,0.98 7.38,1.9 11.26,2.65 1.94,0.37 3.91,0.69 5.8,0.77 0.96,0.08 1.9,0.07 2.86,0.11 0.93,-0.03 1.88,-0.02 2.78,-0.11 0.93,-0.04 1.81,-0.18 2.7,-0.29 l 1.29,-0.26 0.64,-0.13 0.6,-0.2 1.19,-0.4 1.1,-0.48 1.05,-0.55 1.03,-0.62 0.44,-0.27 1.14,-0.76 1.62,-1.14 1.85,-1.35 c 2.22,-1.77 4.4,-3.66 5.36,-3.66 0.11,0 0.2,0.03 0.28,0.08 0.01,0.01 0.01,0.02 0.02,0.03 -0.08,-0.99 2.97,-1.89 5.94,-3.15 l 2.07,-0.9 1.8,-0.9 1.26,-0.54 0.45,-0.27 0.99,-0.54 1.08,-0.63 0.9,-0.72 0.99,-0.9 0.45,-0.45 0.36,-0.45 0.9,-0.99 1.62,-2.16 1.53,-2.34 1.26,-2.52 c 0.9,-1.71 1.62,-3.6 2.25,-5.49 1.26,-3.69 2.43,-7.38 3.33,-11.07 0.9,-3.6 1.71,-7.11 3.06,-10.08 0.51,-1.29 1.15,-2.49 1.92,-3.54"
         inkscape:connector-curvature="0" /></clipPath><clipPath
       id="clipPath3106"
       clipPathUnits="userSpaceOnUse"><path
         id="path3104"
         d="m 2200.31,6937.06 v 4.39 c 91.93,26.15 159.45,110.88 159.45,211.08 0,100.2 -67.52,184.93 -159.45,211.08 v 4.38 l 0.37,-0.16 1.51,-0.46 c 0.82,-0.23 1.68,-0.35 2.54,-0.41 33.77,-10.16 64.21,-28.1 89.22,-51.71 0.46,-0.64 0.96,-1.23 1.5,-1.77 l 1.17,-1.08 1.26,-0.99 0.08,-0.04 c 27.87,-27.66 48.53,-62.58 58.86,-101.65 l 0.01,-0.19 0.18,-1.53 0.36,-1.53 c 0.23,-0.89 0.53,-1.75 0.91,-2.58 3.88,-16.5 5.94,-33.69 5.94,-51.36 0,-17.67 -2.05,-34.86 -5.94,-51.36 -0.38,-0.84 -0.68,-1.72 -0.91,-2.61 l -0.36,-1.53 -0.18,-1.53 -0.01,-0.15 c -10.34,-39.11 -31.02,-74.05 -58.93,-101.72 l -0.01,-0.01 -1.26,-0.9 -1.17,-1.08 c -0.54,-0.57 -1.04,-1.18 -1.5,-1.82 -25.02,-23.64 -55.46,-41.57 -89.25,-51.73 -0.85,-0.06 -1.7,-0.19 -2.51,-0.4 l -1.51,-0.47 -0.37,-0.16"
         inkscape:connector-curvature="0" /></clipPath><clipPath
       id="clipPath3118"
       clipPathUnits="userSpaceOnUse"><path
         id="path3116"
         d="m 2203.51,6886.3 -1.77,0.44 -1.43,0.73 v 4.6 c 0.48,-0.32 0.96,-0.69 1.4,-1.1 0.92,-0.91 1.64,-1.95 1.94,-2.84 l -0.14,-1.83 m 13.67,7.38 c -1.29,0 -2.59,0.11 -3.87,0.33 -1.29,0.2 -2.55,0.6 -3.77,1.05 l -1.75,0.8 -0.85,0.43 -0.81,0.51 c -2.15,1.43 -3.97,3.19 -5.57,5.01 -0.08,0.1 -0.17,0.2 -0.25,0.29 v 6.49 c 2.23,-3.37 4.74,-6.66 7.93,-8.85 l 0.67,-0.45 0.69,-0.4 1.43,-0.73 c 0.98,-0.42 1.99,-0.79 3.06,-1.01 1.37,-0.3 2.79,-0.47 4.22,-0.47 0.79,0 1.58,0.05 2.37,0.16 l 1.64,0.28 1.63,0.39 c 1.03,0.3 2.02,0.64 2.92,1.14 0.91,0.5 1.77,1.08 2.52,1.75 l 1.11,1.03 0.97,1.13 c 1.21,1.61 2.1,3.38 2.75,5.12 0.65,1.76 1.08,3.5 1.34,5.17 0.53,3.34 0.43,6.36 0.08,8.83 -0.31,2.26 -0.83,4.06 -1.3,5.34 -1.71,0.22 -3.39,0.53 -5.04,0.87 -4.11,0.88 -7.91,2.02 -11.52,3.32 -3.63,1.31 -6.74,2.55 -9.51,2.99 -1.11,0.26 -2.2,0.39 -3.29,0.39 -0.69,0 -1.38,-0.05 -2.06,-0.16 l -1.29,-0.27 -1.26,-0.4 -0.06,-0.03 v 3.33 l 0.37,0.16 1.51,0.47 c 0.81,0.21 1.66,0.34 2.51,0.4 0.47,0.04 0.95,0.05 1.43,0.05 0.8,0 1.6,-0.04 2.38,-0.1 3.24,-0.27 6.73,-1.4 10.27,-2.46 3.59,-0.98 7.38,-1.9 11.26,-2.65 1.94,-0.37 3.91,-0.69 5.8,-0.76 0.96,-0.09 1.9,-0.08 2.86,-0.11 0.93,0.02 1.88,0.02 2.78,0.1 0.93,0.04 1.81,0.18 2.7,0.3 l 1.29,0.25 0.64,0.13 0.6,0.2 1.19,0.41 1.1,0.48 1.05,0.55 1.03,0.61 0.44,0.28 1.14,0.76 1.62,1.13 1.85,1.35 c 2.22,1.78 4.4,3.67 5.36,3.67 0.11,0 0.2,-0.03 0.28,-0.08 0.63,-0.61 -0.99,-3.57 -3.12,-6.24 l -0.81,-0.97 -0.84,-0.87 -1.58,-1.52 -1.2,-1 -0.46,-0.37 -1.22,-0.87 -1.3,-0.82 -1.43,-0.73 -1.46,-0.61 -0.76,-0.24 -0.77,-0.21 -1.58,-0.37 c -1.06,-0.18 -2.13,-0.38 -3.2,-0.45 -1.07,-0.13 -2.15,-0.14 -3.23,-0.17 -1.07,0.02 -2.14,0 -3.2,0.11 l -1.03,0.11 c 0.56,-1.23 1.21,-2.99 1.7,-5.2 0.55,-2.49 0.9,-5.57 0.62,-9.07 -0.15,-1.75 -0.46,-3.6 -1.02,-5.51 -0.56,-1.91 -1.4,-3.87 -2.63,-5.77 l -1,-1.38 -1.2,-1.27 c -0.83,-0.83 -1.82,-1.58 -2.89,-2.24 -1.07,-0.66 -2.27,-1.17 -3.49,-1.58 l -1.78,-0.53 -1.83,-0.43 c -1.27,-0.21 -2.57,-0.32 -3.88,-0.32 m 2.23,11.75 -1.41,0.61 0.49,1.41 1.13,1.56 0.83,1.45 0.22,0.49 0.08,0.18 c 0.49,1.18 0.8,2.57 0.77,4.05 -0.01,1.45 -0.35,2.97 -1.01,4.21 -0.65,1.25 -1.6,2.2 -2.76,2.75 l -1.89,0.58 -1.97,0.19 c -1.6,-0.02 -3.22,-0.4 -4.75,-1.19 -1.54,-0.81 -2.97,-2.01 -4.27,-3.42 -1.3,-1.4 -2.48,-3.05 -3.63,-4.68 -0.31,-0.42 -0.62,-0.88 -0.93,-1.35 v 1.32 c 0.08,0.16 0.16,0.32 0.23,0.48 0.92,1.79 1.88,3.65 2.99,5.36 1.13,1.73 2.45,3.36 4.1,4.66 1.64,1.31 3.65,2.23 5.81,2.67 0.69,0.13 1.44,0.21 2.2,0.21 0.15,0 0.3,0 0.45,-0.01 l 0.71,-0.03 0.76,-0.08 1.61,-0.39 c 1.09,-0.35 2.19,-0.93 3.18,-1.7 0.98,-0.78 1.83,-1.76 2.5,-2.81 2.7,-4.23 2.5,-9.68 0.02,-13.14 l -0.2,-0.28 -0.57,-0.68 -2.12,-1.67 -2.57,-0.75"
         inkscape:connector-curvature="0" /></clipPath><clipPath
       id="clipPath3130"
       clipPathUnits="userSpaceOnUse"><path
         id="path3128"
         d="m 2204.99,7370.47 c -0.69,0 -1.38,0.05 -2.06,0.16 l -1.3,0.27 -1.26,0.39 -0.06,0.03 v 20.14 c 0.08,-0.16 0.16,-0.32 0.23,-0.48 0.92,-1.78 1.88,-3.65 2.99,-5.35 1.14,-1.74 2.45,-3.36 4.1,-4.67 1.64,-1.3 3.65,-2.23 5.81,-2.66 0.72,-0.13 1.5,-0.22 2.3,-0.22 0.11,0 0.23,0 0.35,0.01 l 0.71,0.04 0.76,0.08 1.61,0.39 c 1.09,0.35 2.19,0.93 3.18,1.7 0.98,0.78 1.83,1.75 2.5,2.8 2.7,4.24 2.51,9.68 0.02,13.15 l -0.2,0.27 -0.57,0.68 -2.12,1.67 -2.57,0.76 -1.4,-0.63 0.49,-1.4 1.12,-1.55 0.83,-1.46 0.22,-0.48 0.08,-0.19 c 0.49,-1.18 0.8,-2.57 0.77,-4.04 -0.01,-1.46 -0.35,-2.97 -1.01,-4.22 -0.65,-1.25 -1.6,-2.19 -2.76,-2.75 l -1.89,-0.59 -1.97,-0.18 c -1.6,0.02 -3.22,0.4 -4.75,1.2 -1.54,0.8 -2.97,2 -4.27,3.42 -1.29,1.39 -2.48,3.04 -3.63,4.68 -0.31,0.42 -0.62,0.88 -0.93,1.35 v 3.67 c 2.24,3.38 4.75,6.67 7.93,8.85 l 0.67,0.45 0.69,0.4 1.43,0.73 c 0.98,0.42 2,0.79 3.06,1.02 1.36,0.3 2.79,0.47 4.22,0.47 0.79,0 1.58,-0.05 2.37,-0.16 l 1.65,-0.29 1.62,-0.39 c 1.03,-0.3 2.02,-0.63 2.92,-1.14 0.91,-0.5 1.77,-1.06 2.52,-1.74 l 1.11,-1.03 0.97,-1.14 c 1.21,-1.59 2.1,-3.37 2.75,-5.11 0.65,-1.76 1.08,-3.5 1.35,-5.18 0.52,-3.33 0.42,-6.36 0.08,-8.82 -0.32,-2.26 -0.84,-4.06 -1.31,-5.34 -1.71,-0.22 -3.39,-0.53 -5.04,-0.88 -4.11,-0.88 -7.91,-2.01 -11.52,-3.31 -3.63,-1.31 -6.74,-2.54 -9.51,-3.01 -1.11,-0.25 -2.2,-0.37 -3.28,-0.37"
         inkscape:connector-curvature="0" /></clipPath><clipPath
       id="clipPath3142"
       clipPathUnits="userSpaceOnUse"><path
         id="path3140"
         d="m 2261.49,7362.78 c -0.96,0 -3.14,1.89 -5.36,3.66 l -1.85,1.35 -1.62,1.14 -1.14,0.76 -0.44,0.27 -1.03,0.62 -1.05,0.55 -1.1,0.48 -1.19,0.4 -0.6,0.2 -0.64,0.13 -1.29,0.26 c -0.89,0.11 -1.77,0.25 -2.7,0.29 -0.9,0.09 -1.85,0.08 -2.78,0.11 -0.96,-0.04 -1.9,-0.03 -2.86,-0.11 -1.89,-0.08 -3.86,-0.4 -5.8,-0.77 -3.88,-0.75 -7.67,-1.67 -11.26,-2.65 -3.54,-1.05 -7.03,-2.18 -10.27,-2.46 -0.78,-0.06 -1.58,-0.1 -2.38,-0.1 -0.46,0 -0.93,0.01 -1.4,0.05 -0.86,0.06 -1.72,0.18 -2.54,0.41 l -1.51,0.46 -0.37,0.16 v 3.33 l 0.06,-0.03 1.26,-0.39 1.3,-0.27 c 0.68,-0.11 1.37,-0.16 2.06,-0.16 1.08,0 2.17,0.12 3.28,0.37 2.77,0.47 5.88,1.7 9.51,3.01 3.61,1.3 7.41,2.43 11.52,3.31 1.65,0.35 3.33,0.66 5.04,0.88 0.47,1.28 0.99,3.08 1.31,5.34 0.34,2.46 0.44,5.49 -0.08,8.82 -0.27,1.68 -0.7,3.42 -1.35,5.18 -0.65,1.74 -1.54,3.52 -2.75,5.11 l -0.97,1.14 -1.11,1.03 c -0.75,0.68 -1.61,1.24 -2.52,1.74 -0.9,0.51 -1.89,0.84 -2.92,1.14 l -1.62,0.39 -1.65,0.29 c -0.79,0.11 -1.58,0.16 -2.37,0.16 -1.43,0 -2.86,-0.17 -4.22,-0.47 -1.06,-0.23 -2.08,-0.6 -3.06,-1.02 l -1.43,-0.73 -0.69,-0.4 -0.67,-0.45 c -3.18,-2.18 -5.69,-5.47 -7.93,-8.85 v 6.49 c 0.08,0.1 0.17,0.19 0.25,0.29 1.6,1.83 3.42,3.59 5.57,5.01 l 0.82,0.5 0.84,0.45 1.75,0.8 c 1.22,0.45 2.48,0.84 3.77,1.05 1.27,0.22 2.56,0.33 3.85,0.33 1.32,0 2.63,-0.11 3.9,-0.33 l 1.84,-0.42 1.78,-0.53 c 1.21,-0.42 2.42,-0.92 3.48,-1.59 1.07,-0.66 2.06,-1.4 2.89,-2.24 l 1.2,-1.27 1,-1.38 c 1.23,-1.9 2.07,-3.86 2.63,-5.77 0.56,-1.9 0.87,-3.76 1.02,-5.51 0.28,-3.49 -0.07,-6.58 -0.62,-9.07 -0.49,-2.21 -1.14,-3.95 -1.7,-5.2 l 1.03,0.12 c 1.06,0.1 2.13,0.09 3.2,0.1 1.08,-0.03 2.16,-0.04 3.23,-0.16 1.07,-0.08 2.14,-0.28 3.2,-0.45 l 1.58,-0.38 0.77,-0.19 0.76,-0.27 1.47,-0.59 1.42,-0.73 1.31,-0.82 1.21,-0.87 0.46,-0.38 1.2,-1 1.58,-1.51 0.84,-0.88 0.81,-0.97 c 1.96,-2.45 3.49,-5.14 3.23,-6.04 -0.05,-0.05 -0.08,-0.1 -0.09,-0.16 0,0 0,0 0,0 -0.01,-0.01 -0.01,-0.02 -0.02,-0.03 -0.08,-0.05 -0.17,-0.08 -0.28,-0.08 m -45.75,15.3 c -0.8,0 -1.58,0.09 -2.3,0.22 -2.16,0.43 -4.17,1.36 -5.81,2.66 -1.65,1.31 -2.96,2.93 -4.1,4.67 -1.11,1.7 -2.07,3.57 -2.99,5.35 -0.07,0.16 -0.15,0.32 -0.23,0.48 v 1.33 c 0.31,-0.47 0.62,-0.93 0.93,-1.35 1.15,-1.64 2.34,-3.29 3.63,-4.68 1.3,-1.42 2.73,-2.62 4.27,-3.42 1.53,-0.8 3.15,-1.18 4.75,-1.2 l 1.97,0.18 1.89,0.59 c 1.16,0.56 2.11,1.5 2.76,2.75 0.66,1.25 1,2.76 1.01,4.22 0.03,1.47 -0.28,2.86 -0.77,4.04 l -0.08,0.19 -0.22,0.48 -0.83,1.46 -1.12,1.55 -0.49,1.4 1.4,0.63 2.57,-0.76 2.12,-1.67 0.57,-0.68 0.2,-0.27 c 2.49,-3.47 2.68,-8.91 -0.02,-13.15 -0.67,-1.05 -1.52,-2.02 -2.5,-2.8 -0.99,-0.77 -2.09,-1.35 -3.18,-1.7 l -1.61,-0.39 -0.76,-0.08 -0.71,-0.04 c -0.12,-0.01 -0.24,-0.01 -0.35,-0.01 m -15.43,34.91 v 4.6 l 1.43,0.73 1.78,0.43 0.13,-1.83 c -0.3,-0.89 -1.02,-1.93 -1.94,-2.83 -0.44,-0.41 -0.92,-0.78 -1.4,-1.1"
         inkscape:connector-curvature="0" /></clipPath><clipPath
       id="clipPath3154"
       clipPathUnits="userSpaceOnUse"><path
         id="path3152"
         d="m 2200.31,6553.84 v 1.38 l 0.3,-0.32 0.12,-0.29 -0.15,-0.35 -0.27,-0.42 m 0,2.89 v 2.31 l 0.27,-0.36 -0.07,-1.48 -0.2,-0.47"
         inkscape:connector-curvature="0" /></clipPath><clipPath
       id="clipPath3166"
       clipPathUnits="userSpaceOnUse"><path
         id="path3164"
         d="m 2243.38,6541.43 -2.27,0.02 -1.08,0.15 -1.01,0.28 1.03,0.12 1,0.21 1.88,0.79 c 1.17,0.65 2.12,1.54 2.87,2.5 0.59,0.73 1.2,1.67 1.69,2.62 0.51,0.94 0.92,1.85 1.44,2.67 l 0.61,0.76 1.73,0.89 1.6,-1.28 0.24,-1.33 c -0.02,-1.46 -0.68,-3.11 -1.71,-4.38 -1.01,-1.32 -2.34,-2.25 -3.46,-2.77 -1.47,-0.7 -3.01,-1.12 -4.56,-1.25"
         inkscape:connector-curvature="0" /></clipPath><clipPath
       id="clipPath3178"
       clipPathUnits="userSpaceOnUse"><path
         id="path3176"
         d="m 2219,6546.1 -1.09,0.42 -0.19,1.17 0.3,1.17 0.17,0.5 0.11,0.43 0.12,0.38 0.21,1.96 -0.52,2.2 -1.26,2.16 -0.81,0.88 -0.88,0.66 c -1.58,1.13 -3.71,1.69 -5.97,2.02 -0.32,0.05 -0.64,0.07 -0.96,0.07 -0.82,0 -1.65,-0.12 -2.5,-0.12 h -0.74 l 0.78,-2.19 0.08,-1.19 -0.07,-0.77 -0.18,-0.75 -0.09,-0.29 -0.32,-0.77 -0.8,-1.11 -1.26,-0.86 -0.58,-0.18 -0.49,-0.08 -0.83,-0.04 -0.92,0.29 v 1.78 l 0.27,0.42 0.15,0.35 -0.12,0.29 -0.3,0.32 v 1.51 l 0.2,0.47 0.07,1.48 -0.27,0.36 v 6.21 c 0.07,-0.03 0.14,-0.07 0.22,-0.1 l 1.3,-0.76 1.2,-0.98 1.69,-2.25 0.92,0.23 c 1.19,0.26 2.38,0.48 3.58,0.61 0.82,0.09 1.66,0.14 2.51,0.14 1.64,0 3.33,-0.21 5.04,-0.81 l 1.53,-0.71 1.52,-1.08 c 1,-0.8 1.9,-1.86 2.57,-3.13 0.66,-1.26 1.09,-2.73 1.07,-4.25 -0.03,-1.5 -0.54,-2.94 -1.25,-4.02 l -0.49,-0.56 -0.52,-0.52 -0.7,-0.47 -1.5,-0.49"
         inkscape:connector-curvature="0" /></clipPath><clipPath
       id="clipPath3190"
       clipPathUnits="userSpaceOnUse"><path
         id="path3188"
         d="m 2333.7,6492.68 c -2.61,0 -5.18,0.39 -7.65,1.04 -3.47,0.91 -6.79,2.25 -10.02,3.81 -1.81,0.87 -3.76,1.92 -5.59,2.98 l -0.93,-2.08 c -0.7,-1.06 -1.71,-1.89 -2.76,-2.43 -1.05,-0.55 -2.16,-0.83 -3.23,-0.93 -0.33,-0.03 -0.66,-0.05 -0.99,-0.05 -1.78,0 -3.46,0.48 -4.85,1.36 l -0.91,0.67 -1.49,2.06 -0.23,2.51 0.97,1.01 1.05,-0.75 1.03,-0.95 1.59,-0.76 c 0.66,-0.24 1.48,-0.38 2.31,-0.38 0.33,0 0.65,0.03 0.97,0.07 1.16,0.16 2.16,0.64 2.66,1.29 0.54,0.64 0.76,1.74 0.59,3 l -0.16,0.95 -0.24,0.91 -0.13,0.44 -0.18,0.36 -0.38,0.72 c -1.52,2.52 -4.49,4.42 -7.73,5.29 -1.18,0.31 -2.41,0.48 -3.67,0.48 -0.31,0 -0.63,-0.01 -0.94,-0.03 l -0.81,-0.72 -1.89,-1.27 -2.24,-0.76 -2.28,-0.25 -2.25,0.23 c -6.1,1.4 -8.94,6.53 -11.28,8.68 -1.66,1.62 -3.53,3.08 -5.55,4.43 -1.96,1.33 -4.11,2.42 -6.4,3.18 -1.61,0.52 -3.32,0.88 -5.04,0.88 -0.7,0 -1.39,-0.06 -2.08,-0.19 l -2.47,-0.83 0.18,-1.75 c 0.14,-1.21 -0.02,-2.59 -0.39,-3.84 -0.38,-1.26 -0.99,-2.49 -1.94,-3.48 -0.94,-1 -2.2,-1.75 -3.49,-2.02 l -0.4,-0.09 -1.08,-0.06 -1.44,0.2 -1.47,0.6 c -1.84,1.04 -2.77,2.71 -2.29,3.3 l 1.44,0.18 1.99,-0.32 0.89,-0.01 0.65,0.13 0.55,0.19 1.15,0.96 0.8,1.75 0.19,2.27 -0.09,1.27 -0.26,1.26 c -0.46,1.66 -1.27,3.25 -2.27,4.67 -0.99,1.45 -2.24,2.64 -3.4,3.75 l -1.12,1.09 -1.16,0.98 -1.22,0.9 -1.28,0.81 c -1.74,1.02 -3.68,1.77 -5.74,2.21 -1.47,0.29 -2.99,0.43 -4.54,0.43 -0.37,0 -0.74,-0.01 -1.1,-0.02 l 2.28,-1.06 c 1.93,-1.09 4.12,-2.56 5.74,-5.11 0.81,-1.28 1.37,-2.84 1.49,-4.5 0.13,-1.66 -0.21,-3.39 -0.95,-4.91 -0.74,-1.53 -1.89,-2.85 -3.25,-3.81 -1.36,-0.99 -2.91,-1.57 -4.49,-1.87 -0.53,-0.09 -1.07,-0.14 -1.61,-0.14 -1.1,0 -2.2,0.19 -3.22,0.56 -1.52,0.55 -2.83,1.53 -3.75,2.71 l -0.26,0.4 -0.61,1.08 c -0.47,0.91 -0.74,2.3 -0.64,3.58 0.06,1.32 0.64,2.49 1.17,3.22 l 1.51,0.86 0.4,-1.56 0.27,-2.35 0.87,-1.8 0.4,-0.49 0.15,-0.19 c 0.87,-0.8 2.07,-1.3 3.41,-1.3 0.35,0 0.7,0.03 1.06,0.1 1.8,0.37 3.51,1.4 4.36,3 0.87,1.58 0.87,3.36 0.01,5 -0.83,1.7 -2.41,2.85 -3.92,3.93 -2.01,1.41 -4.33,2.64 -6.77,2.64 h -0.02 l -0.64,0.46 0.47,0.75 c -2.01,0.57 -4.11,0.93 -6.22,0.93 -0.4,0 -0.8,-0.01 -1.2,-0.04 -1.26,-0.16 -2.56,-0.33 -3.71,-0.87 -1.2,-0.47 -2.39,-1.17 -3.46,-1.95 -0.8,-0.56 -1.56,-1.3 -2.22,-2.13 v 0.82 c 0.53,0.71 1.12,1.36 1.74,1.89 1.05,0.95 2.15,1.77 3.41,2.45 1.25,0.73 2.64,1.08 4.01,1.41 1.3,0.23 2.61,0.34 3.91,0.34 1.51,0 3.03,-0.14 4.51,-0.39 1.43,-0.26 2.84,-0.61 4.22,-1.08 l 0.72,0.14 c 1.74,0.33 3.5,0.53 5.27,0.53 0.47,0 0.94,-0.01 1.42,-0.04 2.26,-0.15 4.51,-0.65 6.64,-1.5 2.1,-0.85 4.17,-2.06 5.9,-3.37 1.37,-0.98 3,-2.16 4.45,-3.82 1.44,-1.62 2.75,-3.65 3.52,-5.99 l 0.35,-1.39 2.4,1.06 c 1.28,0.4 2.6,0.55 3.92,0.55 1.28,0 2.56,-0.15 3.8,-0.38 2.54,-0.5 4.99,-1.39 7.28,-2.54 2.26,-1.13 4.48,-2.41 6.57,-4 l 2.43,-2.07 2.3,-2.04 c 1.6,-1.28 3.37,-2.31 5.12,-2.57 l 1.31,-0.09 1.28,0.18 1.13,0.38 1.04,0.68 0.92,0.83 0.73,1.01 0.46,0.86 1.5,-1.17 2.12,-1.93 -1.01,-1.6 c 0.82,0.12 1.66,0.19 2.5,0.19 0.5,0 1,-0.03 1.5,-0.07 1.86,-0.17 3.69,-0.61 5.45,-1.37 1.76,-0.76 3.41,-1.85 4.8,-3.38 l 0.79,-1 0.39,-0.55 0.29,-0.58 0.54,-1.23 0.44,-1.33 c 0.26,-0.92 0.39,-1.98 0.3,-3.11 l -0.16,-1.05 c 1.92,-0.94 3.95,-1.87 5.8,-2.6 3.32,-1.3 6.69,-2.32 10.07,-2.91 1.66,-0.28 3.34,-0.43 4.99,-0.43 1.72,0 3.42,0.16 5.06,0.53 l 1.16,0.34 1.13,0.37 2.04,1.13 c 1.34,0.87 2.57,1.95 3.66,3.13 0.85,0.9 1.66,1.94 2.32,3.04 l 0.82,1.7 0.35,1.76 c 0.21,2.45 -0.89,5.26 -2.78,7.29 -0.94,1.03 -2.05,1.85 -3.23,2.34 l -1.77,0.49 -2.17,0.11 c -0.15,0.01 -0.3,0.01 -0.44,0.01 -1.33,0 -2.5,-0.14 -3.34,-0.48 l -1.12,-0.72 -0.77,-1.16 -0.12,-0.31 -0.26,-0.82 c -0.13,-0.66 -0.19,-1.46 0.22,-2.41 0.38,-0.95 1.15,-1.96 1.73,-2.81 l 0.7,-1.86 c -0.09,-0.1 -0.24,-0.15 -0.45,-0.15 -0.37,0 -0.91,0.16 -1.56,0.46 -0.97,0.46 -2.24,1.25 -3.28,2.6 l -1.15,2.31 -0.25,2.31 0.23,1.54 0.14,0.57 c 0.29,0.91 0.75,1.85 1.43,2.68 0.69,0.86 1.63,1.55 2.6,1.99 1.95,0.92 3.92,1.06 5.68,1.08 0.16,0 0.31,0 0.45,0 0.09,0 0.18,0 0.27,0 0.63,0 1.23,-0.01 2.08,-0.12 1.08,-0.13 2.11,-0.44 3.08,-0.86 1.92,-0.83 3.55,-2.14 4.86,-3.66 2.58,-3.01 3.99,-7.03 3.43,-10.92 -0.15,-0.97 -0.41,-1.91 -0.79,-2.8 l -1.33,-2.29 c -0.97,-1.35 -2.03,-2.47 -3.11,-3.43 -1.39,-1.27 -2.91,-2.35 -4.58,-3.25 -0.83,-0.44 -1.69,-0.84 -2.64,-1.13 l -1.4,-0.34 -1.37,-0.26 c -1.07,-0.14 -2.14,-0.21 -3.21,-0.21 m -42.63,26.33 -1.07,0.83 v 0.43 l 1.53,0.25 c -0.02,-0.16 -0.05,-0.25 -0.05,-0.25 l -0.31,-1.07 -0.1,-0.19 m 0.46,1.51 c 0.08,0.44 0.18,1.38 -0.08,2.35 l -0.39,1 -0.52,0.93 -0.46,1.47 1.62,0.19 1.3,-0.68 1.19,-1.24 0.7,-1.6 -0.07,-0.81 -0.59,-0.74 -1.35,-0.64 -1.35,-0.23"
         inkscape:connector-curvature="0" /></clipPath><clipPath
       id="clipPath3202"
       clipPathUnits="userSpaceOnUse"><path
         id="path3200"
         d="m 2310.73,6302.21 h -110.42 v 169.45 c 7.45,-3.08 14.75,-7.14 21.92,-12.13 27.44,-19.1 52.15,-52.41 69.68,-95.36 7.76,-18.97 14.13,-39.77 18.82,-61.96 m -55.27,169.18 c -5.17,4.62 -10.52,8.87 -16.05,12.74 -12.21,8.55 -25.33,15.14 -39.1,19.38 v 3.28 c 11.48,-3.9 22.6,-9.65 33.27,-17.09 7.55,-5.27 14.86,-11.4 21.88,-18.31"
         inkscape:connector-curvature="0" /></clipPath><clipPath
       id="clipPath3214"
       clipPathUnits="userSpaceOnUse"><path
         id="path3212"
         d="m 2346.29,6302.21 h -4.94 c -8.69,44.32 -23.69,84.22 -43.53,117.06 -12.3,20.3 -26.48,37.93 -42.36,52.12 -7.02,6.91 -14.33,13.04 -21.88,18.31 -10.67,7.44 -21.79,13.19 -33.27,17.09 v 10.51 c 13.61,-4.22 26.68,-10.79 38.99,-19.41 22.82,-15.94 43.15,-38.84 60.17,-66.94 21.54,-35.61 37.8,-79.62 46.82,-128.74"
         inkscape:connector-curvature="0" /></clipPath><clipPath
       id="clipPath3226"
       clipPathUnits="userSpaceOnUse"><path
         id="path3224"
         d="m 2341.35,6302.21 h -30.62 c -4.69,22.19 -11.06,42.99 -18.82,61.96 -17.53,42.95 -42.24,76.26 -69.68,95.36 -7.17,4.99 -14.47,9.05 -21.92,12.13 v 31.85 c 13.77,-4.24 26.89,-10.83 39.1,-19.38 5.53,-3.87 10.88,-8.12 16.05,-12.74 15.88,-14.19 30.06,-31.82 42.36,-52.12 19.84,-32.84 34.84,-72.74 43.53,-117.06"
         inkscape:connector-curvature="0" /></clipPath><clipPath
       id="clipPath3238"
       clipPathUnits="userSpaceOnUse"><path
         id="path3236"
         d="m 5799.69,6302.21 h -465.57 v 1627.67 h 465.57 v -607.59 c -2.47,-4.89 -3.44,-8.58 -3.44,-8.58 -2.06,-12.33 0.28,-20.45 3.44,-25.65 v -4.85 c -1.46,0.3 -3.03,0.49 -4.68,0.49 -4.81,0 -10.25,-1.61 -15.17,-6.86 -11.59,-12.41 -36.67,-16.51 -36.67,-16.51 0,0 21.79,-3.3 35.85,-15.67 5.82,-5.12 11.95,-6.61 17.1,-6.61 1.26,0 2.45,0.09 3.57,0.24 v -5.68 c -3.16,-5.2 -5.49,-13.32 -3.44,-25.66 0,0 0.97,-3.68 3.44,-8.57 v -717.57 c -3.39,2.08 -7.35,2.56 -10.28,2.56 -2.52,0 -4.28,-0.36 -4.28,-0.36 0,0 -0.19,-0.01 -0.54,-0.01 -3.86,0 -26.96,1.36 -15.09,34.5 0,0 -28.01,-9.7 -11.31,-37.17 0,0 -5.26,-5.26 -9.82,-5.26 -0.7,0 -1.39,0.12 -2.03,0.41 0,0 3.85,-16.34 23.33,-16.34 1.15,0 2.35,0.06 3.61,0.18 0,0 16.15,-7.01 -1.62,-9.16 -1.05,-0.13 -2.07,-0.19 -3.08,-0.19 -16.11,0 -27.09,15.27 -27.09,15.27 0,0 -3.37,2.37 -8.43,2.37 -3.97,0 -8.98,-1.47 -14.19,-6.68 0,0 7.54,-1.61 9.69,-6.47 0,0 -1.36,1.37 -4.84,1.37 -4.99,0 -14.31,-2.81 -30.18,-16.45 l -0.27,-0.13 c 15.88,-13.65 25.2,-16.45 30.18,-16.45 3.48,0 4.84,1.36 4.84,1.36 -2.16,-4.85 -9.7,-6.46 -9.7,-6.46 5.22,-5.22 10.23,-6.68 14.2,-6.68 5.05,0 8.43,2.37 8.43,2.37 0,0 10.97,15.26 27.08,15.26 1.01,0 2.04,-0.06 3.09,-0.18 17.78,-2.15 1.62,-9.16 1.62,-9.16 -1.26,0.12 -2.46,0.18 -3.6,0.18 -19.5,0 -23.35,-16.34 -23.35,-16.34 0.65,0.29 1.34,0.42 2.04,0.42 4.56,0 9.82,-5.26 9.82,-5.26 -16.7,-27.48 11.31,-37.17 11.31,-37.17 -11.86,33.11 11.2,34.48 15.08,34.48 0.35,0 0.54,-0.01 0.54,-0.01 0,0 1.76,-0.36 4.27,-0.36 3.02,0 7.12,0.51 10.57,2.73 v -95.77"
         inkscape:connector-curvature="0" /></clipPath><clipPath
       id="clipPath3250"
       clipPathUnits="userSpaceOnUse"><path
         id="path3248"
         d="m 5769.23,6361.14 c 0,0 -28.01,9.69 -11.31,37.17 0,0 -5.26,5.26 -9.82,5.26 -0.7,0 -1.39,-0.13 -2.04,-0.42 0,0 3.85,16.34 23.35,16.34 1.14,0 2.34,-0.06 3.6,-0.18 0,0 16.16,7.01 -1.62,9.16 -1.05,0.12 -2.08,0.18 -3.09,0.18 -16.11,0 -27.08,-15.26 -27.08,-15.26 0,0 -3.38,-2.37 -8.43,-2.37 -3.97,0 -8.98,1.46 -14.2,6.68 0,0 7.54,1.61 9.7,6.46 0,0 -1.36,-1.36 -4.84,-1.36 -4.98,0 -14.3,2.8 -30.18,16.45 l 0.27,0.13 c 15.87,13.64 25.19,16.45 30.18,16.45 3.48,0 4.84,-1.37 4.84,-1.37 -2.15,4.86 -9.69,6.47 -9.69,6.47 5.21,5.21 10.22,6.68 14.19,6.68 5.06,0 8.43,-2.37 8.43,-2.37 0,0 10.98,-15.27 27.09,-15.27 1.01,0 2.03,0.06 3.08,0.19 17.77,2.15 1.62,9.16 1.62,9.16 -1.26,-0.12 -2.46,-0.18 -3.61,-0.18 -19.48,0 -23.33,16.34 -23.33,16.34 0.64,-0.29 1.33,-0.41 2.03,-0.41 4.56,0 9.82,5.26 9.82,5.26 -16.7,27.47 11.31,37.17 11.31,37.17 -11.87,-33.14 11.23,-34.5 15.09,-34.5 0.35,0 0.54,0.01 0.54,0.01 0,0 1.76,0.36 4.28,0.36 2.93,0 6.89,-0.48 10.28,-2.56 v -82.83 c -3.45,-2.22 -7.55,-2.73 -10.57,-2.73 -2.51,0 -4.27,0.36 -4.27,0.36 0,0 -0.19,0.01 -0.54,0.01 -3.88,0 -26.94,-1.37 -15.08,-34.48"
         inkscape:connector-curvature="0" /></clipPath><clipPath
       id="clipPath3262"
       clipPathUnits="userSpaceOnUse"><path
         id="path3260"
         d="m 5799.69,7198.38 c -2.47,4.89 -3.44,8.57 -3.44,8.57 -2.05,12.34 0.28,20.46 3.44,25.66 v -34.23 m -3.57,39.67 c -5.15,0 -11.28,1.49 -17.1,6.61 -14.06,12.37 -35.85,15.67 -35.85,15.67 0,0 25.08,4.1 36.67,16.51 4.92,5.25 10.36,6.86 15.17,6.86 1.65,0 3.22,-0.19 4.68,-0.49 v -44.92 c -1.12,-0.15 -2.31,-0.24 -3.57,-0.24 m 3.57,50.01 c -3.16,5.2 -5.5,13.32 -3.44,25.65 0,0 0.97,3.69 3.44,8.58 v -34.23"
         inkscape:connector-curvature="0" /></clipPath><clipPath
       id="clipPath3320"
       clipPathUnits="userSpaceOnUse"><path
         style="clip-rule:evenodd"
         id="path3318"
         d="m 2261.79,6942.23 c -0.09,0.9 2.97,1.89 5.94,3.15 l 2.07,0.9 1.8,0.81 1.26,0.63 0.45,0.18 0.99,0.63 1.08,0.63 0.9,0.72 0.99,0.81 0.45,0.45 0.36,0.45 0.9,0.99 1.62,2.25 1.53,2.34 1.26,2.52 c 0.9,1.71 1.62,3.6 2.25,5.4 1.26,3.78 2.43,7.38 3.33,11.07 0.9,3.6 1.62,7.2 3.06,10.17 0.81,1.98 1.98,3.78 3.42,5.31 l 1.17,1.08 1.26,0.9 1.44,0.81 0.72,0.36 0.81,0.27 c 2.07,0.81 4.32,0.9 6.57,0.63 2.16,-0.27 4.23,-0.72 6.3,-1.35 l -0.09,0.09 -0.45,1.62 -0.18,0.81 -0.18,0.72 c -0.36,2.07 -0.27,4.05 0.09,5.76 0.36,1.71 0.99,3.24 1.8,4.5 l 0.63,0.9 0.63,0.9 0.36,0.45 0.36,0.36 0.72,0.72 1.53,1.08 1.44,0.9 2.34,1.17 0.27,1.44 c 0.63,3.6 1.98,6.66 3.6,9 1.17,1.53 2.25,3.06 3.69,4.32 1.44,1.26 2.97,2.34 4.77,3.24 l 1.35,0.63 1.35,0.54 c 0.99,0.27 1.89,0.54 2.88,0.72 1.26,0.27 2.52,0.45 3.87,0.54 -0.63,1.17 -1.08,2.34 -1.53,3.51 -0.27,0.99 -0.63,1.89 -0.81,2.88 l -0.18,1.44 -0.09,1.53 c -0.18,1.89 0,3.87 0.36,5.67 0.45,1.89 1.17,3.69 1.98,5.31 1.17,2.7 3.15,5.4 5.94,7.65 l 1.08,0.99 c -0.09,0.81 -0.09,1.71 -0.09,2.61 l 0.09,1.71 0.18,1.8 0.18,0.99 0.18,0.54 0.18,0.54 0.36,0.99 0.54,0.99 c 0.81,1.26 1.71,2.61 3.06,3.78 1.26,1.17 2.88,2.16 4.86,2.97 l 0.72,0.27 0.81,0.18 1.62,0.36 0.18,0.09 c -1.53,1.44 -3.06,2.97 -4.32,4.68 -1.35,1.8 -2.43,3.87 -2.79,6.03 l -0.18,0.81 -0.09,0.81 0.09,1.62 0.18,1.53 0.36,1.53 c 0.54,2.07 1.44,4.05 2.79,5.67 1.98,2.7 4.59,5.13 7.2,7.74 1.35,1.35 2.7,2.7 4.05,4.05 1.44,1.44 2.61,2.88 3.87,4.41 1.26,1.44 2.52,2.97 3.6,4.59 l 1.62,2.43 1.26,2.43 0.99,2.52 0.45,1.26 0.18,0.63 0.09,0.63 0.27,1.17 0.18,1.26 0.09,1.17 v 1.17 0.54 l -0.09,1.35 -0.27,1.98 -0.27,2.25 c -0.45,3.15 -0.99,6.3 -0.09,6.66 0.81,0.27 2.52,-2.61 3.69,-5.76 l 0.36,-1.17 0.36,-1.17 0.63,-2.16 0.27,-1.53 0.09,-0.63 0.18,-1.44 v -1.53 l -0.09,-1.62 -0.27,-1.53 -0.18,-0.81 -0.18,-0.81 -0.45,-1.53 c -0.36,-0.99 -0.63,-2.07 -1.08,-2.97 -0.45,-0.99 -0.99,-1.98 -1.53,-2.88 -0.63,-0.9 -1.17,-1.89 -1.8,-2.7 l -0.63,-0.9 c 1.44,-0.09 3.24,-0.45 5.4,-1.08 2.43,-0.81 5.31,-2.07 8.19,-4.05 1.53,-0.99 2.97,-2.16 4.41,-3.6 1.35,-1.44 2.52,-3.15 3.51,-5.13 l 0.72,-1.62 0.54,-1.62 c 0.27,-1.17 0.45,-2.34 0.54,-3.6 0.09,-1.26 -0.09,-2.61 -0.36,-3.87 l -0.45,-1.8 -0.63,-1.8 c -0.9,-2.34 -2.07,-4.68 -3.78,-6.75 -0.72,-0.99 -1.8,-1.89 -2.79,-2.7 l -1.62,-1.08 -0.81,-0.54 -0.9,-0.45 c -2.25,-1.17 -4.68,-1.89 -7.02,-2.34 -2.34,-0.45 -4.68,-0.72 -7.02,-0.9 -3.78,-0.18 -7.56,-0.18 -10.98,-0.36 l 0.27,-0.27 c 1.53,-1.53 3.15,-3.06 4.68,-4.68 1.44,-1.44 3.06,-3.06 4.5,-4.77 l 1.35,-1.98 0.63,-0.27 1.26,-0.72 1.17,-0.72 0.63,-0.27 1.44,-0.9 2.07,-1.44 2.43,-1.71 v 0.27 l -0.99,1.26 -0.81,1.35 0.27,1.26 c 0.72,3.15 2.43,5.94 4.59,7.83 l 0.36,0.27 0.99,0.72 c 0.81,0.63 1.98,1.26 3.15,1.62 1.26,0.36 2.52,0.45 3.42,0.27 0.9,-0.18 1.44,-0.54 1.53,-0.99 l -1.26,-1.35 -2.25,-1.53 -1.98,-1.62 -0.54,-0.63 -0.18,-0.27 c -1.26,-1.44 -2.25,-3.42 -2.7,-5.58 l -0.18,-0.81 -0.09,-0.72 v -0.9 -0.81 c 0.09,-1.17 0.27,-2.34 0.54,-3.6 0.54,-2.52 1.35,-5.22 1.89,-8.1 l 0.18,-1.08 0.18,-1.08 v -2.25 c -0.09,-1.44 -0.36,-2.79 -0.63,-3.96 -0.9,-3.24 -2.25,-6.3 -4.05,-8.91 -0.99,-1.35 -1.98,-2.52 -3.15,-3.69 l -0.81,-0.81 -0.9,-0.81 -1.62,-1.44 c -1.26,-1.08 -2.34,-2.07 -3.69,-2.97 3.24,-4.86 3.96,-10.17 3.96,-10.17 0,0 -1.17,-0.54 -3.15,-0.99 -1.98,-0.45 -4.59,-0.9 -7.56,-0.63 -0.18,-1.53 -0.45,-3.06 -0.81,-4.59 l -0.45,-2.25 -0.27,-1.08 -0.27,-1.17 c -0.36,-1.53 -0.9,-3.06 -1.62,-4.5 -1.44,-2.88 -3.33,-5.67 -5.67,-8.01 -0.9,-0.9 -1.89,-1.8 -3.15,-2.52 l -1.98,-1.08 -0.99,-0.45 -1.08,-0.36 c -2.7,-0.99 -5.4,-1.62 -7.83,-2.34 -1.26,-0.45 -2.43,-0.9 -3.42,-1.35 l -0.81,-0.45 -0.72,-0.36 -0.63,-0.45 -0.54,-0.54 c -1.62,-1.53 -2.88,-3.42 -3.51,-5.22 l -0.09,-0.27 -0.27,-0.81 c -0.18,-0.63 -0.36,-1.53 -0.45,-2.43 -0.09,-0.99 -0.18,-1.89 -0.18,-2.7 l -0.54,-1.8 -1.62,0.81 c -0.63,0.72 -1.17,1.89 -1.53,3.06 -0.27,1.26 -0.27,2.61 -0.18,3.6 l 0.18,1.17 0.09,0.45 c 0.63,2.79 2.07,5.67 4.41,7.92 l 0.99,0.9 1.08,0.72 1.08,0.72 0.18,0.09 -2.16,0.45 -1.98,0.63 -1.44,0.54 -0.45,0.27 -1.26,0.63 -1.17,0.72 -0.54,0.36 -2.43,0.27 c -2.16,0.27 -4.32,0.9 -6.3,1.44 -2.16,0.54 -4.32,1.17 -6.39,1.71 l -0.36,0.09 c 1.62,-3.15 3.42,-6.3 5.13,-9.72 0.99,-2.07 1.98,-4.23 2.7,-6.48 0.81,-2.25 1.44,-4.77 1.53,-7.29 l 0.09,-0.99 -0.09,-0.99 -0.09,-1.89 c -0.27,-1.35 -0.54,-2.61 -0.99,-3.78 -0.9,-2.43 -2.34,-4.77 -3.96,-6.66 l -1.17,-1.44 -1.35,-1.26 c -0.99,-0.9 -2.07,-1.62 -3.15,-2.25 -1.17,-0.54 -2.25,-1.08 -3.42,-1.35 l -1.71,-0.36 -1.62,-0.27 c -2.25,-0.09 -4.41,0.18 -6.3,0.63 -1.98,0.45 -3.78,1.17 -5.31,1.89 -3.24,1.53 -5.67,3.33 -7.56,5.04 -1.71,1.53 -2.88,2.97 -3.69,4.14 l -0.45,-0.99 c -0.36,-0.99 -0.9,-1.98 -1.44,-2.88 -0.54,-0.9 -1.08,-1.8 -1.8,-2.7 l -1.98,-2.52 -1.08,-1.17 -0.54,-0.54 -0.63,-0.54 -1.26,-1.08 -1.35,-0.81 -1.35,-0.72 -1.35,-0.63 -0.54,-0.18 -1.53,-0.54 -2.07,-0.63 -1.17,-0.27 -1.26,-0.27 c -1.35,-0.18 -2.7,-0.36 -3.87,-0.36 -1.71,0 -2.97,0.27 -3.06,0.81 m 40.23,50.31 -0.54,-0.27 -0.63,-0.36 -1.08,-0.72 -0.9,-0.9 -0.9,-0.99 c -1.17,-1.35 -1.98,-2.88 -2.52,-4.68 -0.9,-2.7 -1.53,-5.94 -2.16,-9.72 -0.36,-1.89 -0.81,-3.78 -1.17,-5.76 -0.54,-1.98 -1.08,-3.96 -1.71,-5.94 -0.54,-1.53 -1.17,-3.15 -1.8,-4.77 0.9,-1.08 2.16,-2.43 3.96,-3.78 1.98,-1.53 4.59,-3.15 7.74,-4.41 1.53,-0.54 3.33,-1.08 5.13,-1.35 1.89,-0.36 3.87,-0.45 5.76,-0.18 l 1.44,0.27 1.44,0.45 c 0.99,0.27 1.89,0.72 2.79,1.26 l 2.34,1.98 0.99,1.17 0.72,1.35 c 1.35,1.8 1.71,3.78 2.34,5.85 0.36,0.99 -0.81,2.07 -0.63,3.15 l -2.61,1.53 v 0.81 l 2.61,0.81 c -0.45,4.41 0.45,8.55 -1.62,12.51 l -0.45,0.81 c -1.26,-0.09 -2.61,-0.09 -3.78,-0.27 -2.07,-0.09 -3.96,-0.45 -5.85,-0.81 -1.89,-0.45 -3.6,-1.08 -5.13,-1.98 -1.44,-0.9 -2.61,-2.07 -3.33,-3.51 l -0.9,-1.8 -0.45,-1.98 c -0.09,-1.26 0.27,-2.52 0.99,-3.69 0.81,-1.26 1.89,-2.25 3.15,-3.06 1.26,-0.72 2.7,-1.17 3.96,-1.35 h 0.18 0.54 l 1.62,-0.09 1.98,0.27 1.44,-0.27 -0.18,-1.62 -1.98,-1.8 -2.52,-0.99 -0.81,-0.18 h -0.36 c -4.32,-0.36 -9.09,2.16 -11.43,6.66 -0.54,1.08 -0.99,2.25 -1.17,3.51 -0.18,1.26 -0.09,2.52 0.18,3.6 l 0.45,1.53 0.27,0.72 0.36,0.63 1.53,2.16 c 1.44,1.71 3.24,3.06 5.22,3.78 1.98,0.72 4.05,1.08 6.12,1.17 2.07,0.09 4.05,0.09 6.03,0 1.17,-0.09 2.52,-0.18 3.69,-0.27 -1.8,3.51 -3.78,7.02 -5.49,10.44 l -0.36,0.9 -0.99,0.27 c -2.07,0.45 -4.14,0.81 -6.12,0.9 -0.27,0 -0.45,0 -0.72,0 -1.71,0 -3.24,-0.27 -4.68,-0.99 m 33.12,23.22 -0.27,-0.18 -0.99,-0.54 -1.98,-0.63 c -0.9,-0.18 -1.98,-0.45 -3.24,-0.72 l -1.35,-0.36 c -0.09,-1.08 -0.18,-2.16 -0.09,-3.33 0.09,-1.53 0.36,-3.15 0.9,-4.77 l 0.81,-2.25 0.54,-1.17 0.63,-1.08 0.63,-1.17 0.72,-0.99 0.72,-1.08 0.81,-0.99 c 1.08,-1.26 2.25,-2.43 3.42,-3.51 l 1.89,-1.44 0.99,-0.72 0.9,-0.54 0.45,-0.27 1.08,-0.63 1.53,-0.72 1.89,-0.81 0.99,-0.36 0.99,-0.36 1.8,-0.54 0.72,-0.18 c 2.7,0.63 5.31,1.08 7.56,1.62 l 0.9,0.27 0.81,0.27 1.53,0.63 c 0.9,0.54 1.8,1.08 2.61,1.71 2.16,1.71 4.05,3.87 5.58,6.21 0.81,1.17 1.44,2.52 1.98,3.87 l 0.36,0.99 0.36,1.08 0.09,0.36 -0.45,-0.81 -1.53,-2.07 c -0.99,-1.35 -2.34,-2.79 -3.78,-4.05 -1.44,-1.26 -3.06,-2.43 -4.86,-3.42 -0.9,-0.54 -1.8,-0.99 -2.79,-1.44 l -0.72,-0.27 -0.81,-0.27 -0.81,-0.27 -0.9,-0.18 c -2.25,-0.36 -4.32,-0.36 -6.3,-0.09 -1.98,0.27 -3.78,0.81 -5.49,1.44 -3.42,1.35 -6.21,3.24 -8.37,5.31 -2.25,2.07 -3.69,4.41 -4.5,6.12 l -0.9,2.16 -0.18,0.72 v 0.09 l 0.63,-0.63 0.72,-0.63 0.9,-0.81 2.07,-1.89 2.07,-2.25 -0.09,0.27 v 0.45 l 1.17,-0.45 0.36,-0.45 0.99,-0.9 2.52,-2.16 0.27,0.81 1.26,0.72 0.27,0.72 0.72,1.17 1.35,0.36 c 0.54,-0.09 1.17,-0.54 2.07,-1.44 l 0.45,0.27 1.44,-1.08 c 0,0 0.72,-1.17 1.89,-2.25 l 1.8,-1.35 1.53,-0.45 -0.81,0.72 v 1.26 l -0.27,0.72 v 1.53 l 0.81,1.35 0.36,0.18 0.45,0.18 0.27,0.09 h 0.18 0.18 l 0.9,0.18 0.09,0.18 0.18,0.36 1.44,0.09 0.9,-0.09 2.34,0.18 2.7,0.54 1.89,0.72 0.36,0.18 1.17,0.54 c 0.9,0.54 2.25,1.35 3.51,2.43 l 1.98,1.89 0.99,1.17 0.18,0.81 c -4.59,0.63 -9.54,2.97 -13.05,8.37 0,0 0.99,0.36 2.07,1.17 0.99,0.81 2.07,2.16 2.34,3.87 2.79,2.25 2.25,6.39 2.25,6.39 6.48,-0.36 10.89,-3.51 13.77,-7.2 l 0.63,0.63 0.45,1.44 0.63,2.61 c 0.27,1.71 0.36,3.24 0.36,4.32 l -0.09,1.26 -0.09,0.45 -0.27,1.98 -0.81,2.61 -1.08,2.07 -0.45,0.81 -0.72,1.26 0.27,0.36 0.09,0.09 -0.36,0.9 v 0.18 l -0.09,0.09 -0.09,0.27 -0.09,0.45 v 0.45 l 0.72,1.44 1.35,0.72 0.72,0.18 1.17,0.54 0.99,-0.27 -1.17,1.08 -2.07,0.9 c -1.53,0.45 -2.88,0.45 -2.88,0.45 -1.08,0.18 -1.53,0.45 -1.62,0.72 l -0.09,0.54 c -1.17,0.36 -1.89,0.63 -2.25,1.08 l -0.27,1.35 0.63,1.26 0.54,0.54 -0.09,1.53 0.63,0.54 c -0.9,0.27 -2.07,0.72 -3.15,1.08 l -1.26,0.45 -0.54,0.09 c -1.08,0.36 -1.17,0.63 -0.99,0.81 l 0.36,0.18 0.27,0.09 c -0.63,0.09 -1.26,0.18 -1.8,0.36 l -0.09,-0.09 h -1.26 l -0.36,0.63 c -0.81,0.18 -1.53,0.45 -2.16,0.63 l -1.17,0.36 -0.9,0.27 -0.81,0.27 0.81,0.18 c 0.54,0.18 1.26,0.27 2.25,0.36 0.18,0 0.36,0 0.63,0 l -0.81,1.26 -2.34,-0.36 c -1.62,-0.45 -3.15,-0.99 -4.59,-1.71 -0.99,-0.54 -1.98,-1.08 -2.88,-1.62 l 0.36,-1.44 c 0.36,-1.17 0.72,-2.25 0.99,-3.15 l 0.45,-2.07 0.09,-1.08 -0.09,-0.36 -0.09,0.27 -0.45,0.99 -1.08,1.89 c -0.45,0.72 -1.08,1.71 -1.71,2.97 l -0.36,0.54 c -2.07,-1.62 -3.78,-3.6 -4.86,-5.58 -0.9,-1.44 -1.71,-2.88 -2.16,-4.41 -0.54,-1.62 -0.81,-3.24 -0.9,-4.95 -0.09,-3.42 0.81,-6.93 2.43,-10.44 l 0.18,-0.36 h -0.45 c -3.78,-0.36 -7.29,-1.26 -10.17,-3.06 -1.44,-0.99 -2.79,-2.07 -3.87,-3.33 -1.08,-1.17 -1.98,-2.61 -2.79,-4.05 -1.08,-1.98 -1.98,-4.32 -2.43,-7.02 h 0.72 c 1.44,0.09 2.52,0 3.42,0 h 2.07 l 1.08,0.09 h 0.36 m -12.87,-5.13 -1.26,-0.99 -1.17,-1.08 -0.54,-0.54 -0.27,-0.27 -0.18,-0.36 -0.45,-0.72 -0.45,-0.81 c -0.63,-0.99 -0.99,-2.25 -1.26,-3.51 -0.27,-1.35 -0.27,-2.88 0,-4.41 l 0.18,-0.54 0.09,-0.63 0.36,-1.17 0.27,-0.54 0.27,-0.63 0.72,-1.35 0.09,-0.27 1.53,-0.36 c 2.07,-0.72 4.14,-1.53 6.21,-2.25 1.98,-0.63 4.05,-1.26 6.21,-1.8 l 1.8,-0.27 -1.26,0.9 c -1.44,1.26 -2.97,2.61 -4.23,4.23 l -0.9,1.17 -0.9,1.26 -0.9,1.35 -0.72,1.35 -0.63,1.35 -0.63,1.44 c -0.45,0.99 -0.72,1.98 -1.08,3.06 -0.45,1.98 -0.72,4.05 -0.72,6.03 v 0.45 l -0.18,-0.09 m 48.33,52.29 -0.72,-0.54 c 0.63,-0.09 1.35,-0.27 2.07,-0.45 2.88,-0.81 5.94,-2.34 8.82,-4.59 1.35,-1.17 2.7,-2.52 3.96,-4.05 1.17,-1.62 2.34,-3.42 3.06,-5.58 l 0.27,-0.81 0.18,-0.81 0.18,-0.9 0.09,-0.81 c 0.18,-0.99 0.18,-1.98 0.18,-3.06 0,-2.07 -0.18,-4.05 -0.54,-5.94 -0.36,-1.89 -0.99,-3.69 -1.62,-5.31 l -1.08,-2.34 -0.45,-0.81 0.27,0.27 0.72,0.9 0.72,0.81 c 0.9,1.17 1.71,2.34 2.43,3.6 1.26,2.52 2.16,5.22 2.52,7.92 0.18,1.08 0.18,2.16 0.18,3.15 l -0.18,1.62 -0.18,0.81 -0.18,0.9 c -0.63,2.25 -1.62,4.68 -2.34,7.47 l -0.54,0.45 -1.44,1.35 -0.72,0.63 -0.81,0.72 -1.71,1.17 -1.44,0.99 -1.08,0.63 -0.36,0.27 -0.99,0.45 -1.08,0.45 -2.16,0.72 c -1.53,0.54 -3.15,0.72 -4.86,0.99 l -1.17,-0.27 m -4.5,15.93 -0.63,-1.08 -0.63,-0.09 -1.26,-0.27 -0.54,-0.18 -0.54,-0.18 c -1.53,-0.54 -2.79,-1.26 -3.78,-2.16 -1.08,-0.81 -1.89,-1.8 -2.52,-2.79 l -0.45,-0.81 -0.36,-0.72 -0.18,-0.36 -0.18,-0.36 -0.18,-0.72 -0.36,-1.62 -0.27,-1.53 v -0.27 l 0.45,0.27 c 1.71,0.99 3.6,1.8 5.58,2.34 0.99,0.27 2.07,0.54 3.15,0.63 l 1.53,0.18 1.62,0.09 h 1.53 1.53 l 1.53,-0.18 1.53,-0.18 c 1.98,-0.36 3.96,-0.9 5.76,-1.53 l 1.44,-0.63 -1.17,1.62 c -1.53,1.62 -3.15,3.42 -4.68,4.77 -1.71,1.44 -3.42,3.33 -5.04,4.77 l -1.17,2.16 h -0.18 l -1.53,-1.17 m 13.23,38.34 c -2.7,-3.06 -5.85,-5.76 -8.64,-8.28 -1.44,-1.26 -2.79,-2.43 -4.05,-3.51 -1.26,-1.08 -2.43,-2.16 -3.33,-3.24 -1.26,-1.35 -2.16,-2.88 -2.7,-4.5 l -0.36,-1.35 -0.27,-1.26 v -1.26 -0.63 l -0.09,-0.72 c 0.18,-1.71 0.72,-3.51 1.8,-5.13 0.99,-1.71 2.43,-3.24 3.87,-4.86 l 0.63,-0.72 0.99,0.09 c 3.87,0.36 7.83,0.36 11.88,0.54 -0.72,0.99 -1.44,2.07 -2.16,3.06 -1.17,1.71 -2.16,3.42 -3.06,5.22 -0.9,1.89 -1.71,3.78 -2.07,5.94 -0.27,2.07 -0.18,4.23 0.63,6.3 l 1.17,2.43 0.36,0.63 0.45,0.54 1.17,1.26 c 0.81,0.72 1.8,1.44 2.97,1.89 1.17,0.45 2.43,0.72 3.69,0.81 5.04,0.18 9.63,-2.7 11.43,-6.57 l 0.18,-0.36 0.27,-0.81 c 0.27,-0.72 0.45,-1.71 0.45,-2.7 0,-0.99 -0.27,-1.89 -0.72,-2.52 l -1.26,-0.9 -0.9,1.08 -0.81,1.71 -0.81,1.44 -0.27,0.45 -0.09,0.18 c -0.81,0.99 -1.89,1.98 -3.15,2.7 -1.35,0.72 -2.79,1.17 -4.23,1.26 -1.35,0 -2.7,-0.36 -3.69,-1.08 l -1.44,-1.35 -1.26,-1.62 c -0.81,-1.35 -1.26,-2.97 -1.26,-4.68 -0.09,-1.71 0.36,-3.6 0.9,-5.4 0.45,-1.8 1.26,-3.69 2.07,-5.49 0.54,-1.08 1.17,-2.25 1.8,-3.42 h 0.9 c 4.41,0.27 8.91,0.72 12.87,2.52 l 0.81,0.36 0.63,0.45 1.44,0.81 2.34,2.16 c 1.44,1.62 2.61,3.51 3.51,5.58 l 0.63,1.62 0.45,1.53 c 0.36,1.08 0.54,2.07 0.54,3.15 0,0.99 -0.09,2.07 -0.36,3.06 l -0.36,1.44 -0.54,1.44 c -0.72,1.8 -1.8,3.51 -2.97,4.95 -1.08,1.44 -2.43,2.61 -3.78,3.69 -2.7,2.16 -5.31,3.6 -7.65,4.5 -2.16,0.81 -3.96,1.35 -5.31,1.53 -0.99,-1.35 -2.07,-2.7 -3.24,-3.96 m -34.02,-112.41 -0.54,0.09 -0.45,0.09 -1.08,0.36 -1.08,0.45 -0.99,0.54 -2.07,1.62 -1.62,2.43 c -0.45,0.9 -0.72,1.8 -0.81,2.7 -0.18,0.9 -0.18,1.8 -0.09,2.61 0.18,1.62 0.72,2.97 1.26,4.14 l 1.26,1.89 2.52,1.26 c 0.81,-0.45 0.9,-1.62 0.81,-2.7 -0.09,-1.08 -0.18,-2.07 -0.18,-2.07 -0.18,-1.08 -0.36,-2.16 -0.45,-3.15 0,-1.08 0.09,-1.98 0.36,-2.79 l 1.62,-2.16 0.63,-0.54 0.63,-0.45 0.63,-0.27 0.27,-0.18 0.36,-0.18 c 1.17,-0.45 2.34,-0.72 3.6,-0.72 1.26,0.09 2.52,0.45 3.69,1.17 1.17,0.72 2.07,1.89 2.88,3.15 0.63,1.17 1.08,2.79 1.35,4.05 0.09,-1.35 -0.18,-2.97 -0.63,-4.41 -0.54,-1.53 -1.26,-2.97 -2.43,-4.14 -1.17,-1.17 -2.7,-2.07 -4.41,-2.61 -0.9,-0.27 -1.89,-0.36 -2.88,-0.36 -0.72,0 -1.44,0.09 -2.16,0.18 m 24.75,30.87 c 0.72,1.26 1.17,2.61 1.26,3.96 0.18,1.35 -0.18,2.7 -0.81,3.78 -0.54,1.17 -1.35,2.07 -2.43,2.79 l -0.27,0.18 -0.27,0.27 -0.63,0.36 -0.72,0.36 -0.72,0.27 c -0.9,0.27 -1.89,0.45 -2.7,0.27 l -2.52,-1.08 -2.61,-1.89 c 0,0 -0.72,-0.63 -1.62,-1.26 -0.99,-0.54 -1.98,-1.08 -2.79,-0.63 -0.72,0.45 -0.63,1.71 -0.18,2.79 0.36,1.17 0.99,2.07 0.99,2.07 0.81,1.08 1.71,2.16 3.06,3.15 l 2.25,1.26 c 0.81,0.36 1.8,0.54 2.79,0.63 0.9,0.09 1.89,0 2.79,-0.27 0.9,-0.18 1.71,-0.54 2.52,-0.9 l 0.99,-0.63 0.9,-0.72 0.81,-0.72 0.36,-0.36 0.36,-0.45 c 1.08,-1.26 1.89,-2.79 2.34,-4.5 0.36,-1.62 0.45,-3.42 -0.09,-5.04 -0.45,-1.62 -1.35,-2.97 -2.34,-4.23 -0.99,-1.08 -2.34,-2.16 -3.51,-2.79 0.99,0.9 2.16,2.16 2.79,3.33 m 13.23,116.91 c -0.9,0.36 -0.36,3.51 0.09,6.66 l 0.27,2.25 0.27,1.98 0.09,1.35 v 0.54 1.26 l -0.09,1.17 -0.18,1.17 -0.27,1.26 -0.09,0.54 -0.18,0.63 -0.45,1.26 -0.99,2.52 -1.26,2.43 -1.62,2.43 c -1.08,1.62 -2.34,3.15 -3.6,4.68 -1.26,1.44 -2.43,2.97 -3.87,4.32 -1.35,1.44 -2.7,2.79 -4.05,4.05 -2.61,2.61 -5.22,5.13 -7.2,7.74 -1.35,1.71 -2.25,3.6 -2.79,5.67 l -0.36,1.53 -0.18,1.53 -0.09,1.62 0.09,0.81 0.18,0.81 c 0.36,2.16 1.44,4.23 2.79,6.03 1.26,1.71 2.79,3.24 4.32,4.77 h -0.18 l -1.62,0.36 -0.81,0.27 -0.72,0.27 c -1.98,0.72 -3.6,1.71 -4.86,2.88 -1.35,1.17 -2.25,2.52 -3.06,3.87 l -0.54,0.99 -0.36,0.99 -0.18,0.45 -0.18,0.54 -0.18,0.99 -0.18,1.8 -0.09,1.71 c 0,0.9 0,1.8 0.09,2.7 l -1.08,0.9 c -2.79,2.34 -4.77,5.04 -5.94,7.65 -0.81,1.71 -1.53,3.42 -1.98,5.31 -0.36,1.8 -0.54,3.78 -0.36,5.76 l 0.09,1.44 0.18,1.44 c 0.18,0.99 0.54,1.98 0.81,2.88 0.45,1.26 0.9,2.43 1.53,3.6 -1.35,0.09 -2.61,0.18 -3.87,0.45 -0.99,0.18 -1.89,0.45 -2.88,0.81 l -1.35,0.45 -1.35,0.63 c -1.8,0.9 -3.33,1.98 -4.77,3.24 -1.44,1.35 -2.52,2.79 -3.69,4.32 -1.62,2.43 -2.97,5.49 -3.6,9 l -0.27,1.44 -2.34,1.17 -1.44,0.99 -1.53,1.08 -0.72,0.63 -0.36,0.45 -0.36,0.36 -0.63,0.9 -0.63,0.9 c -0.81,1.26 -1.44,2.79 -1.8,4.5 -0.36,1.71 -0.45,3.69 -0.09,5.76 l 0.18,0.81 0.18,0.72 0.45,1.62 0.09,0.09 c -2.07,-0.54 -4.14,-1.08 -6.3,-1.35 -2.25,-0.27 -4.5,-0.09 -6.57,0.63 l -0.81,0.27 -0.72,0.36 -1.44,0.81 -1.26,0.99 -1.17,1.08 c -1.44,1.44 -2.61,3.24 -3.42,5.31 -1.35,2.97 -2.16,6.48 -3.06,10.08 -0.9,3.69 -2.07,7.38 -3.33,11.07 -0.63,1.89 -1.35,3.78 -2.25,5.49 l -1.26,2.52 -1.53,2.34 -1.62,2.16 -0.9,0.99 -0.36,0.45 -0.45,0.45 -0.99,0.9 -0.9,0.72 -1.08,0.63 -0.99,0.54 -0.45,0.27 -1.26,0.54 -1.8,0.9 -2.07,0.9 c -2.97,1.26 -6.03,2.16 -5.94,3.15 0.18,0.81 3.6,0.9 6.93,0.36 l 1.26,-0.27 1.17,-0.27 2.07,-0.63 1.53,-0.45 0.54,-0.27 1.35,-0.63 1.35,-0.72 1.35,-0.81 1.26,-1.08 0.63,-0.45 0.54,-0.63 1.08,-1.17 1.98,-2.52 c 0.72,-0.9 1.26,-1.8 1.8,-2.7 0.54,-0.9 1.08,-1.89 1.44,-2.88 l 0.45,-0.9 c 0.81,1.08 1.98,2.52 3.69,4.05 1.89,1.71 4.32,3.6 7.56,5.04 1.53,0.81 3.33,1.44 5.31,1.89 1.89,0.45 4.05,0.81 6.3,0.63 l 1.62,-0.18 1.71,-0.45 c 1.17,-0.27 2.34,-0.72 3.42,-1.35 1.08,-0.54 2.16,-1.35 3.15,-2.16 l 1.35,-1.35 1.17,-1.35 c 1.62,-1.98 3.06,-4.23 3.96,-6.66 0.45,-1.26 0.72,-2.52 0.99,-3.78 l 0.09,-1.98 0.09,-0.99 -0.09,-0.99 c -0.09,-2.52 -0.72,-4.95 -1.53,-7.29 -0.72,-2.25 -1.71,-4.41 -2.7,-6.48 -1.71,-3.42 -3.51,-6.57 -5.13,-9.72 l 0.36,0.09 c 2.07,0.54 4.23,1.17 6.39,1.8 1.98,0.54 4.14,1.08 6.3,1.44 l 2.43,0.18 0.54,0.36 1.17,0.72 1.26,0.63 0.45,0.27 1.44,0.54 1.98,0.63 2.16,0.45 -0.18,0.18 -1.08,0.63 -1.08,0.72 -0.99,0.9 c -2.34,2.25 -3.78,5.13 -4.41,8.01 l -0.09,0.36 -0.18,1.26 c -0.09,0.9 -0.09,2.25 0.18,3.51 0.36,1.26 0.9,2.34 1.53,3.06 l 1.62,0.81 0.54,-1.71 c 0,-0.81 0.09,-1.8 0.18,-2.7 0.09,-0.99 0.27,-1.8 0.45,-2.52 l 0.27,-0.72 0.09,-0.36 c 0.63,-1.8 1.89,-3.69 3.51,-5.22 l 0.54,-0.45 0.63,-0.45 0.72,-0.45 0.81,-0.45 c 0.99,-0.45 2.16,-0.9 3.42,-1.26 2.43,-0.81 5.13,-1.44 7.83,-2.43 l 1.08,-0.36 0.99,-0.45 1.98,-1.08 c 1.26,-0.72 2.25,-1.62 3.15,-2.52 2.34,-2.34 4.23,-5.13 5.67,-7.92 0.72,-1.44 1.26,-2.97 1.62,-4.5 l 0.27,-1.17 0.27,-1.17 0.45,-2.25 c 0.36,-1.53 0.63,-3.06 0.81,-4.59 2.97,0.27 5.58,-0.18 7.56,-0.63 1.98,-0.45 3.15,-0.99 3.15,-0.99 0,0 -0.72,-5.31 -3.96,-10.08 1.35,-0.99 2.43,-1.98 3.69,-2.97 l 1.62,-1.53 0.9,-0.81 0.81,-0.81 c 1.17,-1.08 2.16,-2.34 3.15,-3.69 1.8,-2.61 3.15,-5.67 4.05,-8.82 0.36,-1.26 0.54,-2.61 0.63,-4.05 v -2.25 l -0.18,-1.08 -0.18,-1.08 c -0.54,-2.88 -1.35,-5.49 -1.89,-8.01 -0.27,-1.26 -0.45,-2.52 -0.54,-3.69 v -0.81 -0.81 l 0.09,-0.81 0.18,-0.81 c 0.45,-2.16 1.44,-4.14 2.7,-5.58 l 0.18,-0.27 0.54,-0.54 1.98,-1.71 2.25,-1.44 1.26,-1.35 c -0.09,-0.45 -0.63,-0.9 -1.53,-1.08 -0.9,-0.18 -2.16,0 -3.42,0.27 -1.17,0.45 -2.34,1.08 -3.15,1.62 l -0.9,0.72 -0.27,0.27 c -2.25,1.98 -3.78,4.77 -4.59,7.92 v 1.17 l 0.36,1.35 0.99,1.26 v 0.27 l -2.43,-1.71 -2.61,-1.35 -1.17,-0.99 -0.45,-0.27 -1.17,-0.72 -1.26,-0.72 -0.54,-0.27 -1.44,-1.98 c -1.35,-1.71 -2.97,-3.33 -4.41,-4.77 -1.53,-1.62 -3.15,-3.06 -4.68,-4.59 l -0.27,-0.36 c 3.42,-0.18 7.2,-0.09 10.98,-0.36 2.34,-0.18 4.68,-0.36 7.02,-0.9 2.34,-0.45 4.77,-1.17 7.02,-2.34 l 0.9,-0.45 0.81,-0.45 1.62,-1.17 c 0.99,-0.81 2.07,-1.71 2.79,-2.7 1.71,-2.07 2.88,-4.41 3.78,-6.75 l 0.63,-1.8 0.45,-1.8 c 0.27,-1.26 0.45,-2.52 0.36,-3.78 -0.09,-1.26 -0.27,-2.52 -0.54,-3.69 l -0.54,-1.62 -0.72,-1.53 c -0.99,-2.07 -2.16,-3.78 -3.51,-5.22 -1.44,-1.44 -2.88,-2.61 -4.41,-3.6 -2.88,-1.98 -5.76,-3.24 -8.19,-3.96 -2.16,-0.72 -3.96,-1.08 -5.4,-1.17 l 0.63,-0.81 c 0.63,-0.9 1.17,-1.8 1.8,-2.7 0.54,-0.99 1.08,-1.89 1.53,-2.88 0.45,-0.99 0.72,-2.07 1.08,-3.06 l 0.45,-1.53 0.18,-0.81 0.18,-0.72 0.27,-1.62 0.09,-1.53 v -1.62 l -0.18,-1.44 -0.09,-0.63 -0.27,-1.53 -0.63,-2.07 -0.36,-1.17 -0.36,-1.26 c -1.08,-2.97 -2.7,-5.76 -3.6,-5.76 h -0.09 m -17.64,70.02 c -1.53,-1.53 -2.88,-3.15 -3.96,-4.86 -0.99,-1.62 -1.62,-3.42 -1.8,-5.13 l 0.09,-0.63 v -0.72 -1.26 l 0.18,-1.26 0.36,-1.26 c 0.63,-1.71 1.53,-3.15 2.79,-4.59 0.9,-1.08 2.07,-2.07 3.33,-3.24 1.26,-1.08 2.61,-2.25 4.05,-3.51 2.79,-2.43 5.94,-5.13 8.64,-8.28 1.17,-1.26 2.25,-2.61 3.24,-3.96 1.35,0.27 3.15,0.72 5.31,1.53 2.34,0.99 4.95,2.34 7.65,4.5 1.35,1.08 2.7,2.34 3.78,3.78 1.17,1.44 2.25,3.06 2.97,4.86 l 0.54,1.44 0.36,1.44 c 0.27,0.99 0.36,2.07 0.36,3.15 0,0.99 -0.18,2.07 -0.54,3.06 l -0.45,1.62 -0.63,1.53 c -0.9,2.07 -2.07,3.96 -3.51,5.58 l -2.34,2.16 -1.44,0.81 -0.63,0.45 -0.81,0.36 c -3.96,1.8 -8.46,2.25 -12.87,2.52 h -0.9 c -0.63,-1.08 -1.26,-2.34 -1.8,-3.42 -0.81,-1.8 -1.62,-3.6 -2.07,-5.4 -0.54,-1.89 -0.99,-3.69 -0.9,-5.49 0,-1.71 0.45,-3.33 1.26,-4.68 l 1.26,-1.62 1.44,-1.35 c 0.99,-0.72 2.34,-1.08 3.69,-0.99 1.44,0 2.88,0.45 4.23,1.17 1.26,0.72 2.34,1.71 3.15,2.7 l 0.09,0.18 0.27,0.45 0.81,1.44 0.81,1.71 0.9,1.17 1.26,-0.9 c 0.45,-0.63 0.72,-1.62 0.72,-2.61 0,-0.99 -0.18,-1.98 -0.45,-2.7 l -0.27,-0.81 -0.18,-0.36 c -1.8,-3.87 -6.39,-6.75 -11.43,-6.48 -1.26,0 -2.52,0.27 -3.69,0.72 -1.17,0.45 -2.16,1.17 -2.97,1.89 l -1.17,1.26 -0.45,0.63 -0.36,0.54 -1.17,2.43 c -0.81,2.07 -0.9,4.32 -0.63,6.39 0.36,2.07 1.17,4.05 2.07,5.85 0.9,1.8 1.89,3.51 3.06,5.22 0.72,0.99 1.44,2.07 2.16,3.15 -4.05,0.09 -8.01,0.09 -11.88,0.45 l -0.99,0.09 -0.54,-0.72 m -11.43,16.56 0.27,-1.53 0.36,-1.62 0.18,-0.72 0.18,-0.36 0.18,-0.45 0.36,-0.72 0.45,-0.72 c 0.63,-0.99 1.44,-1.98 2.52,-2.88 0.99,-0.9 2.25,-1.62 3.78,-2.16 l 0.54,-0.18 0.54,-0.18 1.26,-0.27 0.63,-0.09 h 0.63 l 1.53,-0.18 h 0.18 l 1.17,1.08 c 1.62,1.53 3.33,2.88 5.04,4.32 1.53,1.35 3.15,2.88 4.68,4.59 l 1.17,1.35 -1.44,-0.63 c -1.8,-0.63 -3.78,-1.26 -5.76,-1.53 l -1.53,-0.27 -1.53,-0.09 -1.53,-0.09 h -1.53 l -1.62,0.09 -1.53,0.18 c -1.08,0.09 -2.16,0.36 -3.15,0.63 -1.98,0.54 -3.87,1.35 -5.58,2.34 l -0.45,0.27 v -0.18 m 2.07,13.41 -0.09,-1.17 -0.45,-2.07 c -0.27,-0.9 -0.63,-1.98 -0.99,-3.15 l -0.36,-1.44 c 0.9,-0.54 1.89,-1.17 2.88,-1.62 1.44,-0.72 2.97,-1.35 4.59,-1.8 l 2.34,-0.45 1.26,-0.36 1.26,-0.45 h 1.26 l 1.35,0.54 1.26,0.54 1.17,0.18 c 1.71,0.27 3.33,0.72 4.86,1.26 l 2.16,0.9 1.08,0.45 0.99,0.54 0.36,0.27 1.08,0.63 1.44,0.99 1.71,1.26 0.81,0.63 0.72,0.72 1.44,1.26 0.54,0.45 c 0.72,2.79 1.71,5.22 2.34,7.47 l 0.18,0.9 0.18,0.81 0.18,1.62 c 0,1.08 0,2.16 -0.18,3.15 -0.36,2.7 -1.26,5.4 -2.52,7.92 -0.72,1.26 -1.53,2.52 -2.43,3.6 l -0.72,0.81 -0.72,0.9 -0.27,0.27 0.45,-0.81 1.08,-2.34 c 0.63,-1.62 1.26,-3.33 1.62,-5.31 0.36,-1.89 0.54,-3.87 0.54,-5.94 0,-0.99 0,-2.07 -0.18,-3.06 l -0.09,-0.81 -0.18,-0.81 -0.18,-0.9 -0.27,-0.81 c -0.72,-2.16 -1.89,-3.96 -3.06,-5.49 -1.26,-1.62 -2.61,-2.97 -3.96,-4.05 -2.88,-2.34 -5.94,-3.78 -8.82,-4.68 -2.97,-0.81 -5.67,-0.99 -7.56,-0.81 -0.99,0.09 -1.71,0.27 -2.25,0.36 l -0.81,0.18 0.81,0.27 0.9,0.27 1.17,0.36 c 0.81,0.27 1.71,0.63 2.7,0.9 0.9,0.27 1.89,0.54 2.97,0.63 l -0.27,0.09 -0.36,0.18 c -0.18,0.18 -0.09,0.45 0.99,0.81 l 0.54,0.18 1.26,0.36 c 1.08,0.36 2.25,0.81 3.15,1.08 l -0.63,0.63 0.09,1.44 -0.54,0.54 -0.63,1.26 0.27,1.35 c 0.36,0.45 1.08,0.72 2.25,1.08 l 0.09,0.54 c 0.09,0.27 0.54,0.54 1.62,0.72 0,0 1.35,0 2.88,0.45 l 2.07,0.9 1.17,1.17 -0.99,-0.36 -1.17,0.54 -0.72,0.18 -1.35,0.81 -0.72,1.35 v 0.45 l 0.09,0.45 0.09,0.27 0.09,0.18 v 0.18 l 0.36,0.81 -0.09,0.18 -0.27,0.36 0.72,1.17 0.45,0.81 1.08,2.16 0.81,2.61 0.27,1.98 0.09,0.45 0.09,1.26 c 0,1.08 -0.09,2.61 -0.36,4.23 -0.09,0.9 -0.36,1.71 -0.63,2.61 l -0.45,1.53 -0.63,0.54 c -2.88,-3.69 -7.29,-6.75 -13.77,-7.2 0,0 0.54,4.14 -2.25,6.39 -0.27,1.8 -1.35,3.06 -2.34,3.87 -1.08,0.81 -2.07,1.17 -2.07,1.17 3.51,5.49 8.46,7.74 13.05,8.37 l -0.18,0.9 -0.99,1.17 -1.98,1.8 c -1.26,1.08 -2.61,1.89 -3.51,2.43 l -1.17,0.54 -0.36,0.18 -1.89,0.72 -2.7,0.63 -2.34,0.09 h -0.9 -1.44 l -0.18,0.36 -0.09,0.18 -0.9,0.18 h -0.18 l -0.18,0.09 h -0.27 l -0.45,0.18 -0.36,0.18 -0.81,1.35 v 1.53 l 0.27,0.72 v 1.26 l 0.81,0.72 -1.53,-0.45 -1.8,-1.35 c -1.17,-1.08 -1.89,-2.25 -1.89,-2.25 l -1.44,-1.08 -0.45,0.27 c -0.9,-0.9 -1.53,-1.35 -2.07,-1.44 l -1.35,0.45 -0.72,1.17 -0.27,0.63 -1.26,0.72 -0.27,0.81 -2.52,-2.16 -0.99,-0.9 -0.36,-0.36 -1.17,-0.45 v 0.36 l 0.09,0.27 -2.07,-2.25 -2.07,-1.89 -0.9,-0.81 -0.72,-0.63 -0.63,-0.63 v 0.09 l 0.27,0.81 0.81,2.07 c 0.81,1.71 2.25,4.05 4.5,6.12 2.16,2.07 4.95,4.05 8.37,5.31 1.71,0.72 3.51,1.17 5.49,1.44 1.98,0.27 4.05,0.27 6.3,-0.09 l 0.9,-0.18 0.81,-0.27 0.81,-0.27 0.72,-0.27 c 0.99,-0.45 1.89,-0.9 2.79,-1.35 1.8,-1.08 3.42,-2.25 4.86,-3.51 1.44,-1.26 2.79,-2.61 3.78,-4.05 l 1.53,-2.07 0.45,-0.81 -0.09,0.36 -0.36,1.08 -0.36,1.08 c -0.54,1.26 -1.17,2.61 -1.98,3.78 -1.53,2.43 -3.42,4.59 -5.58,6.21 -0.81,0.63 -1.71,1.26 -2.61,1.71 l -1.53,0.63 -0.81,0.27 -0.9,0.27 c -2.25,0.54 -4.86,0.99 -7.56,1.71 l -0.72,-0.27 -1.8,-0.54 -0.99,-0.36 -0.99,-0.36 -1.89,-0.72 -1.53,-0.81 -1.08,-0.63 -0.45,-0.27 -0.9,-0.54 -0.99,-0.72 -1.89,-1.44 c -1.17,-1.08 -2.34,-2.16 -3.42,-3.51 l -0.81,-0.99 -0.72,-0.99 -0.72,-1.08 -0.63,-1.08 -0.63,-1.17 -0.54,-1.08 -0.81,-2.34 c -0.54,-1.53 -0.81,-3.15 -0.9,-4.77 -0.09,-1.08 0,-2.25 0.09,-3.33 l 1.35,-0.36 c 1.26,-0.27 2.34,-0.45 3.24,-0.72 l 1.98,-0.63 0.99,-0.54 0.27,-0.18 h -0.36 l -1.08,0.09 h -2.07 c -0.9,0 -1.98,-0.09 -3.42,0 l -0.72,0.09 c 0.45,-2.7 1.35,-5.13 2.43,-7.11 0.81,-1.44 1.71,-2.79 2.79,-4.05 1.08,-1.26 2.43,-2.34 3.87,-3.24 2.88,-1.8 6.39,-2.7 10.17,-3.06 l 0.45,-0.09 -0.18,-0.36 c -1.62,-3.51 -2.52,-7.02 -2.43,-10.35 0.09,-1.71 0.36,-3.42 0.9,-4.95 0.45,-1.62 1.26,-3.06 2.16,-4.5 1.08,-1.89 2.79,-3.87 4.86,-5.58 l 0.36,0.63 c 0.63,1.26 1.26,2.16 1.71,2.97 l 1.08,1.8 0.45,0.99 0.09,0.27 0.09,-0.27 m -23.67,64.08 c -2.16,-0.45 -4.23,-1.17 -6.21,-1.8 -2.07,-0.72 -4.14,-1.53 -6.21,-2.16 l -1.53,-0.45 -0.09,-0.18 -0.72,-1.35 -0.27,-0.63 -0.27,-0.63 -0.36,-1.17 -0.09,-0.54 -0.18,-0.63 c -0.27,-1.53 -0.27,-3.06 0,-4.32 0.27,-1.35 0.63,-2.61 1.26,-3.6 l 0.45,-0.81 0.45,-0.63 0.18,-0.36 0.27,-0.27 0.54,-0.63 1.17,-1.08 1.26,-0.99 0.18,-0.09 v 0.54 c 0,1.89 0.27,3.96 0.72,5.94 0.36,1.08 0.63,2.07 1.08,3.06 l 0.63,1.44 0.63,1.44 0.81,1.35 0.81,1.26 0.9,1.26 0.9,1.26 c 1.26,1.53 2.79,2.88 4.23,4.14 l 1.26,0.9 -1.8,-0.27 m -27.18,39.6 c -1.8,-0.36 -3.6,-0.81 -5.13,-1.44 -3.15,-1.26 -5.76,-2.88 -7.74,-4.41 -1.8,-1.35 -3.06,-2.7 -3.96,-3.78 0.63,-1.53 1.26,-3.15 1.8,-4.77 0.63,-1.98 1.17,-3.96 1.71,-5.85 0.36,-1.98 0.81,-3.96 1.17,-5.76 0.63,-3.87 1.26,-7.02 2.16,-9.81 0.54,-1.8 1.35,-3.33 2.52,-4.68 l 0.9,-0.99 0.9,-0.9 1.08,-0.72 0.63,-0.36 0.54,-0.27 c 1.62,-0.72 3.42,-0.99 5.4,-0.99 1.98,0.09 4.05,0.45 6.12,0.99 l 0.99,0.18 0.36,0.9 c 1.71,3.51 3.69,6.93 5.49,10.53 -1.17,-0.09 -2.52,-0.18 -3.69,-0.27 -1.98,-0.18 -3.96,-0.18 -6.03,-0.09 -2.07,0.09 -4.14,0.45 -6.12,1.17 -1.98,0.81 -3.78,2.07 -5.22,3.78 l -1.53,2.16 -0.36,0.63 -0.27,0.72 -0.45,1.53 c -0.27,1.17 -0.36,2.34 -0.18,3.6 0.18,1.26 0.63,2.52 1.17,3.6 2.34,4.5 7.11,7.02 11.43,6.57 h 0.36 l 0.81,-0.18 2.52,-0.99 1.98,-1.8 0.18,-1.62 -1.44,-0.18 -1.98,0.18 h -1.62 l -0.54,-0.09 h -0.18 c -1.26,-0.18 -2.7,-0.63 -3.96,-1.35 -1.26,-0.81 -2.34,-1.8 -3.15,-2.97 -0.72,-1.26 -1.08,-2.52 -0.99,-3.78 l 0.45,-1.98 0.81,-1.71 c 0.72,-1.44 1.89,-2.7 3.33,-3.6 1.53,-0.9 3.15,-1.53 5.04,-1.98 1.89,-0.36 3.69,-0.63 5.67,-0.81 1.17,-0.09 2.25,-0.18 3.51,-0.27 l -0.27,0.81 c 2.07,3.96 2.52,8.19 2.97,12.51 l -2.61,0.81 v 0.81 l 2.61,1.53 c -0.18,1.08 2.34,2.16 1.98,3.15 -0.63,2.07 -1.71,4.05 -3.06,5.85 l -0.99,1.35 -1.17,1.17 -2.43,1.98 c -0.9,0.54 -1.8,0.99 -2.79,1.26 l -1.44,0.45 -1.53,0.27 c -0.81,0.09 -1.62,0.18 -2.43,0.18 -1.08,0 -2.25,-0.09 -3.33,-0.27 m 53.91,-103.41 -2.25,1.17 c -1.35,0.99 -2.25,2.16 -2.97,3.15 0,0 -0.72,0.99 -1.08,2.07 -0.45,1.08 -0.54,2.34 0.18,2.79 0.81,0.54 1.8,-0.09 2.79,-0.63 0.9,-0.63 1.62,-1.17 1.62,-1.17 l 2.61,-1.98 2.52,-1.08 c 0.81,-0.09 1.8,0 2.7,0.36 l 0.72,0.27 0.72,0.27 0.63,0.45 0.27,0.18 0.27,0.18 c 1.08,0.72 1.89,1.71 2.43,2.79 0.63,1.08 0.99,2.43 0.81,3.78 -0.09,1.35 -0.54,2.7 -1.26,3.96 -0.63,1.26 -1.8,2.43 -2.79,3.33 1.17,-0.63 2.52,-1.71 3.51,-2.79 0.99,-1.17 1.89,-2.61 2.34,-4.23 0.54,-1.53 0.45,-3.33 0.09,-5.04 -0.45,-1.71 -1.26,-3.24 -2.34,-4.5 l -0.36,-0.36 -0.36,-0.36 -0.81,-0.81 -0.9,-0.72 -0.99,-0.54 c -0.81,-0.45 -1.62,-0.81 -2.52,-0.99 -0.9,-0.18 -1.89,-0.27 -2.79,-0.27 -0.99,0.09 -1.98,0.36 -2.79,0.72 m -20.25,30.51 -1.26,1.98 c -0.54,1.08 -1.08,2.52 -1.26,4.05 -0.09,0.81 -0.09,1.71 0.09,2.61 0.09,0.9 0.36,1.89 0.81,2.79 l 1.62,2.34 2.07,1.62 0.99,0.63 1.08,0.45 1.08,0.27 0.45,0.09 0.54,0.09 c 1.62,0.36 3.42,0.27 5.04,-0.18 1.71,-0.45 3.24,-1.35 4.41,-2.61 1.17,-1.17 1.89,-2.61 2.43,-4.14 0.45,-1.35 0.72,-3.06 0.63,-4.41 -0.27,1.35 -0.72,2.88 -1.35,4.05 -0.81,1.35 -1.71,2.43 -2.88,3.15 -1.17,0.72 -2.43,1.08 -3.69,1.17 -1.26,0.09 -2.43,-0.27 -3.6,-0.72 l -0.36,-0.09 -0.27,-0.18 -0.63,-0.36 -0.63,-0.45 -0.63,-0.45 -1.62,-2.25 c -0.27,-0.81 -0.36,-1.71 -0.36,-2.79 0.09,-0.99 0.27,-2.07 0.45,-3.15 0,0 0.09,-0.9 0.18,-2.07 0.09,-1.08 0,-2.25 -0.81,-2.7 l -2.52,1.26"
         inkscape:connector-curvature="0" /></clipPath></defs><g
     transform="matrix(1.3333333,0,0,-1.3333333,-943.3656,435.82969)"
     id="g10"><g
       transform="scale(0.1)"
       id="g12"><g
         id="g4148"
         transform="translate(116.09217,36.938418)"
         style="fill:#ffd57b;fill-opacity:1"><path
           d="m 7327.71,3104.59 c -1.35,-12.73 -6.26,-27.03 -14.17,-39.78 -3.98,-6.36 -8.65,-12.25 -13.99,-16.91 -5.97,-5.15 -12.42,-9.74 -19.32,-13.76 -13.85,-7.92 -29.35,-13.44 -44.65,-17.18 -15.31,-3.82 -30.39,-5.98 -43.95,-7.61 -4.4,-0.49 -8.94,-1.03 -13.07,-1.3 -4.29,-0.24 -8.67,-0.4 -13.1,-0.4 -8.88,-0.05 -17.88,0.2 -26.92,0.51 -18.11,0.64 -36.41,1.52 -54.94,1.77 -18.33,0.23 -36.92,-0.05 -55.58,-2.36 -8.61,-1.11 -17.99,-2.67 -26.94,-5.43 -8.94,-2.73 -17.45,-6.71 -23.81,-11.85 6.84,4.48 15.43,7.74 24.36,9.81 8.94,2.09 18.23,3.01 26.74,3.42 18.46,0.78 36.71,-0.52 54.74,-2.36 18.22,-1.86 36.21,-4.4 54.3,-6.76 9.05,-1.15 18.12,-2.28 27.36,-3.1 4.61,-0.43 9.28,-0.72 14.05,-0.9 4.94,-0.15 9.44,-0.03 14.1,0.05 14.17,0.35 30.24,1.25 47.32,4.28 17.04,2.95 35.19,8.15 52.26,17.16 8.5,4.56 16.65,10.06 24.05,16.34 7.97,6.84 14.16,14.88 19.1,23.15 9.8,16.59 15.08,34.76 15.06,52.29 0,0 -0.03,1.01 -0.08,2.78 -0.01,0.86 -0.09,1.94 -0.23,3.19 -0.15,1.23 -0.2,2.6 -0.51,4.13 -0.9,6.02 -3.17,14.23 -7.68,21.4 -4.49,7.17 -11.06,12.78 -16.65,15.22 -5.65,2.47 -9.89,2.42 -10.97,0.65 -0.9,-2.08 1.42,-5.19 4.16,-9.2 2.78,-4.03 5.61,-9.2 7.27,-14.57 1.64,-5.42 2.12,-11.1 2.1,-15.42 0.04,-1.07 -0.08,-2.08 -0.09,-2.96 l -0.16,-2.3 c -0.1,-1.27 -0.16,-2 -0.16,-2"
           style="fill:#ffd57b;fill-opacity:1;fill-rule:nonzero;stroke:none"
           id="path386"
           inkscape:connector-curvature="0" /><path
           d="m 7237.12,3123.37 c 4.65,-6.54 10.69,-13.08 16.03,-19.83 5.39,-6.7 10.13,-13.75 13.57,-20.04 4.57,-8.12 7.99,-17.3 10.58,-27.11 0.69,-2.43 1.24,-4.9 1.78,-7.4 0.57,-2.5 1.09,-5.02 1.52,-7.57 0.9,-4.73 1.45,-10.37 2.3,-14.91 0.76,4.54 1.28,10.21 1.77,15.05 0.32,2.61 0.56,5.23 0.77,7.83 0.25,2.62 0.48,5.22 0.6,7.84 0.61,10.56 0.54,21.3 -1.36,32.31 -1.35,8.43 -4.77,19.03 -10.61,28.44 -5.76,9.45 -13.61,17.38 -21.31,22.27 0,0 -0.88,0.56 -2.27,1.31 -1.42,0.73 -3.32,1.69 -5.49,2.27 -4.29,1.22 -9.17,1.51 -11.91,-1.85 -2.6,-3.48 -1.46,-8.15 0.23,-11.88 0.89,-1.85 1.79,-3.57 2.52,-4.78 0.73,-1.21 1.28,-1.95 1.28,-1.95"
           style="fill:#ffd57b;fill-opacity:1;fill-rule:nonzero;stroke:none"
           id="path388"
           inkscape:connector-curvature="0" /><path
           d="m 7507.32,3017.84 c -0.07,5.35 -1.19,10.62 -2.87,15.63 -1.69,5.01 -3.9,9.86 -6.59,14.37 -5.32,9.09 -12.18,17.21 -19.7,24.36 -7.58,7.09 -15.86,13.23 -24.65,18 -4.4,2.39 -8.93,4.43 -13.73,5.93 -1.15,0.4 -2.52,0.71 -3.74,1.03 -1.3,0.39 -2.36,0.42 -3.51,0.6 -2.25,0.3 -4.43,0.58 -6.56,0.86 -11.03,0.79 -21.9,-0.65 -31.96,-3.63 -10.08,-2.97 -19.42,-7.37 -28.27,-12.42 -8.76,-4.99 -17.06,-10.63 -25.26,-16.48 -7.61,-5.41 -16.52,-11.72 -23.62,-16.93 7.94,3.82 17.47,9.27 25.72,13.46 8.92,4.52 17.86,8.69 26.88,12.01 9.09,3.35 18.28,5.83 27.36,6.85 9.06,1.02 17.95,0.53 26.26,-1.59 3.04,-1.06 6.65,-1.81 9.2,-3.27 2.94,-1.46 6.13,-3.46 9.29,-5.76 6.37,-4.59 12.76,-10.42 18.64,-16.67 5.86,-6.28 11.25,-13.06 15.51,-19.77 4.24,-6.68 7.39,-13.33 8.69,-18.86 l 0.24,-0.88 c 0.09,-0.54 0.25,-1.31 0.48,-2.26 0.26,-1.84 0.59,-4.26 0.48,-6.87 -0.2,-2.56 -0.82,-5.48 -1.44,-8.2 -0.63,-2.67 -1.04,-5.23 0.21,-7.06 1.33,-1.65 4.07,-1.91 7.52,-0.63 3.43,1.29 7.38,4.48 10.27,8.8 2.83,4.34 4.24,9.42 4.82,13.18 0.2,1.86 0.3,3.43 0.35,4.51 0.03,1.09 -0.02,1.69 -0.02,1.69"
           style="fill:#ffd57b;fill-opacity:1;fill-rule:nonzero;stroke:none"
           id="path390"
           inkscape:connector-curvature="0" /><path
           d="m 7372.02,2974.79 c 0.63,-4.93 2.65,-10.51 6.57,-15.25 1.92,-2.37 4.32,-4.41 6.92,-6.15 2.64,-1.61 5.49,-2.96 8.42,-3.76 11.83,-3.35 23.98,-0.15 32.84,6.23 4.48,3.16 8.22,7.13 11.06,11.41 2.86,4.26 4.87,8.81 6.25,13.26 0.56,2.15 1.17,4.36 1.49,6.3 0.37,1.97 0.75,3.88 0.93,5.94 0.11,1.01 0.22,2 0.32,2.98 0.04,1.01 0.07,2.01 0.1,2.99 0.12,1.94 -0.04,3.95 -0.16,5.82 -0.44,4.96 -1.58,10.03 -3.75,14.73 -2.15,4.7 -5.32,8.89 -9,12.18 -7.44,6.61 -16.21,9.68 -24.63,11.59 -8.42,1.87 -16.87,2.42 -25.32,2.55 -7.79,0.09 -16.91,-0.16 -24.19,-0.98 7.28,-0.79 16.31,-1.61 23.79,-3.07 8.09,-1.59 15.95,-3.7 23.03,-6.85 7.1,-3.14 13.52,-7.39 17.26,-12.69 3.8,-5.27 4.7,-11.19 3.87,-17.45 -0.22,-1.22 -0.34,-2.44 -0.72,-3.75 l -0.46,-1.97 -0.64,-2.03 c -0.37,-1.35 -0.95,-2.82 -1.52,-4.3 -0.53,-1.55 -1.16,-2.77 -1.71,-4.13 -2.5,-4.91 -5.97,-9.06 -10.16,-11.43 -4.09,-2.49 -8.81,-3.07 -11.85,-2.36 -1.56,0.31 -2.64,0.83 -3.58,1.56 -0.95,0.73 -1.88,1.82 -2.66,3.48 0.05,0.04 -0.43,0.66 -0.87,2.13 -0.54,1.37 -0.98,3.61 -1.49,6.18 -0.4,2.61 -0.77,5.52 -1.45,8.07 -0.61,2.51 -1.71,4.66 -3.68,5.59 -2.01,0.8 -4.27,-0.03 -6.6,-1.91 -2.26,-1.92 -4.4,-5 -6.01,-8.53 -1.5,-3.56 -2.46,-7.57 -2.58,-10.83 -0.09,-1.62 -0.11,-3 0.03,-3.99 0.09,-1 0.15,-1.56 0.15,-1.56"
           style="fill:#ffd57b;fill-opacity:1;fill-rule:nonzero;stroke:none"
           id="path392"
           inkscape:connector-curvature="0" /><path
           d="m 7404.78,3206.82 c 3.6,-9.45 4.95,-20.14 2.93,-32.07 -1.95,-11.86 -6.97,-24.17 -11.75,-33.9 -6.21,-12.75 -14.26,-25.02 -23.23,-37.03 -4.45,-5.95 -9.19,-11.81 -14.12,-17.66 -4.55,-5.4 -10.26,-11.47 -14.6,-16.63 5.44,3.99 11.89,9.28 17.44,13.71 6.01,4.8 11.93,9.61 17.69,14.58 11.6,10.06 22.74,20.48 32.72,32.72 7.58,9.33 16.44,22.37 20.69,38.85 2.1,8.17 2.79,17.2 1.44,25.82 -0.41,2.13 -0.77,4.27 -1.33,6.31 -0.63,2.04 -1.31,4.05 -2.01,5.99 -1.68,3.77 -3.44,7.33 -5.67,10.34 l -0.67,0.97 c -0.45,0.59 -1.04,1.48 -1.95,2.4 -1.75,1.82 -3.98,4.4 -6.82,6.21 -1.38,0.96 -2.8,1.86 -4.18,2.6 -1.46,0.66 -2.9,1.15 -4.25,1.45 -2.69,0.61 -4.97,0.35 -6.49,-1.21 -1.42,-1.65 -1.64,-3.99 -1.26,-6.47 0.18,-1.24 0.53,-2.51 0.94,-3.78 0.33,-1.34 0.74,-2.65 1.19,-3.9 1.03,-2.43 1.63,-4.87 2.35,-6.5 l 0.69,-2.04 0.25,-0.76"
           style="fill:#ffd57b;fill-opacity:1;fill-rule:nonzero;stroke:none"
           id="path394"
           inkscape:connector-curvature="0" /><path
           d="m 7629.08,3165.95 c -7.51,-4.32 -15.84,-8.67 -24.87,-12.64 -9.01,-3.98 -18.74,-7.54 -28.68,-10.66 -19.87,-6.27 -40.48,-11.04 -57.22,-14.96 -21.8,-5.12 -43.96,-9.74 -66.19,-16.06 -11,-3.13 -21.99,-6.68 -32.82,-10.99 -10.03,-3.92 -21.59,-9.23 -30.15,-14.66 9.32,3.99 21.11,8.25 31.4,10.8 11.11,2.81 22.26,4.76 33.37,6.26 22.45,3.01 44.68,4.16 67.29,5.93 17.33,1.36 39.17,3.57 61.33,9.25 11.05,2.83 22.16,6.62 32.43,11.57 10.29,4.88 19.72,10.9 27.49,17.44 0,0 1.78,1.53 4.33,3.92 1.3,1.15 2.65,2.73 4.11,4.37 1.42,1.66 3.03,3.37 4.36,5.3 5.64,7.59 9.21,16.46 6.04,19.29 -3.57,2.64 -11.09,-1.94 -18.24,-6.04 -7.08,-4.11 -13.98,-8.12 -13.98,-8.12"
           style="fill:#ffd57b;fill-opacity:1;fill-rule:nonzero;stroke:none"
           id="path396"
           inkscape:connector-curvature="0" /><path
           d="m 6959.15,2951.81 c 0,0 1.29,0.65 3.74,1.91 1.2,0.63 2.71,1.4 4.48,2.32 1.78,0.88 3.74,2.06 6.17,2.96 9.35,4.26 23.4,9.22 41.19,11.81 4.4,0.85 9.14,1 13.99,1.45 2.41,0.28 4.94,0.2 7.48,0.26 2.54,0.02 5.11,0.14 7.75,0.09 5.29,-0.3 10.7,-0.27 16.31,-0.92 2.81,-0.28 5.65,-0.45 8.53,-0.81 2.87,-0.39 5.79,-0.78 8.74,-1.16 23.61,-3.35 49.35,-9.65 76.76,-16.23 13.72,-3.28 27.21,-6.41 40.42,-9.07 13.24,-2.59 26.14,-4.78 38.6,-6.15 24.9,-2.75 48.03,-2.19 66.8,1.77 2.34,0.57 4.61,1.1 6.82,1.63 2.22,0.54 4.37,1.02 6.4,1.77 2.04,0.68 4.02,1.35 5.95,1.99 1.91,0.64 3.77,1.23 5.48,2.07 3.45,1.54 6.68,2.93 9.58,4.31 2.78,1.59 5.35,3.04 7.63,4.35 1.15,0.67 2.23,1.25 3.21,1.89 0.94,0.67 1.83,1.3 2.66,1.9 1.63,1.17 3.02,2.16 4.13,2.98 2.21,1.61 3.38,2.46 3.38,2.46 0,0 -1.33,-0.59 -3.84,-1.72 -1.23,-0.55 -2.77,-1.26 -4.59,-2.09 -0.88,-0.41 -1.86,-0.85 -2.91,-1.33 -1.05,-0.42 -2.22,-0.79 -3.42,-1.23 -2.42,-0.85 -5.1,-1.8 -8.03,-2.85 -3.01,-0.77 -6.25,-1.62 -9.77,-2.53 -1.71,-0.52 -3.56,-0.8 -5.46,-1.12 -1.9,-0.32 -3.83,-0.66 -5.84,-1.02 -1.98,-0.41 -4.08,-0.54 -6.21,-0.75 -2.14,-0.2 -4.31,-0.41 -6.55,-0.62 -17.96,-1.26 -39.37,0.68 -62.89,5.13 -11.77,2.23 -24.09,5.11 -36.9,8.2 -12.9,3.18 -26.24,6.46 -39.92,9.83 -27.56,6.61 -54.57,11.92 -79.74,13.52 -3.15,0.15 -6.25,0.3 -9.33,0.46 -3.07,0.11 -6.12,0.03 -9.12,0.04 -5.97,0.13 -11.83,-0.48 -17.43,-0.8 -2.8,-0.25 -5.57,-0.69 -8.26,-1.02 -2.7,-0.39 -5.35,-0.63 -7.91,-1.25 -5.14,-1.12 -10.08,-1.94 -14.65,-3.48 -2.3,-0.68 -4.52,-1.36 -6.71,-2.01 -2.18,-0.64 -4.21,-1.6 -6.21,-2.35 -2,-0.8 -3.93,-1.59 -5.8,-2.33 -1.89,-0.71 -3.59,-1.76 -5.28,-2.57 -1.68,-0.87 -3.3,-1.7 -4.85,-2.5 -1.55,-0.79 -3.05,-1.55 -4.37,-2.48 -2.7,-1.73 -5.16,-3.33 -7.38,-4.74 -2.25,-1.35 -4.02,-2.91 -5.6,-4.15 -1.58,-1.26 -2.9,-2.34 -3.99,-3.2 -2.12,-1.72 -3.24,-2.62 -3.24,-2.62"
           style="fill:#ffd57b;fill-opacity:1;fill-rule:nonzero;stroke:none"
           id="path398"
           inkscape:connector-curvature="0" /></g></g></g></svg>